/* XPM */
static char *_ed094e9254e42f4d5be69c2213ce9fb3ROLUXCUAQA2O0mD[] = {
/* columns rows colors chars-per-pixel */
"64 64 150 2 ",
"   c None",
".  c #030201",
"X  c #0A0707",
"o  c #0B0806",
"O  c #0D0C0D",
"+  c #100F0D",
"@  c #1B0F0C",
"#  c #0F100E",
"$  c #12110F",
"%  c #120F11",
"&  c #141313",
"*  c #191613",
"=  c #171619",
"-  c #1B1A1B",
";  c #211F1F",
":  c #25211E",
">  c #252423",
",  c #282827",
"<  c #24242C",
"1  c #26282E",
"2  c #2D2C2B",
"3  c #302E2D",
"4  c #35312E",
"5  c #2F2C32",
"6  c #302F33",
"7  c #2D3139",
"8  c #363333",
"9  c #383435",
"0  c #34353A",
"q  c #393639",
"w  c #3D3B3C",
"e  c #413E3C",
"r  c #45403C",
"t  c #403E41",
"y  c #454444",
"u  c #4B4040",
"i  c #474847",
"p  c #454649",
"a  c #464848",
"s  c #4B4A4B",
"d  c #474851",
"f  c #4B4D56",
"g  c #524F50",
"h  c #565656",
"j  c #585757",
"k  c #53555B",
"l  c #5C5B5B",
"z  c #625D5D",
"x  c #545761",
"c  c #5D616D",
"v  c #626262",
"b  c #696768",
"n  c #6D6C73",
"m  c #716F71",
"M  c #767575",
"N  c #7B7777",
"B  c #7D7A7D",
"V  c #847E7E",
"C  c #81807F",
"Z  c #737685",
"A  c #747984",
"S  c #7F93B2",
"D  c #838383",
"F  c #8C8783",
"G  c #8D8882",
"H  c #8E8D8D",
"J  c #828690",
"K  c #868E9F",
"L  c #938F90",
"P  c #949394",
"I  c #9C9999",
"U  c #828AA2",
"Y  c #919CAF",
"T  c #8598B4",
"R  c #8E9EBB",
"E  c #929DB5",
"W  c #9FA1A3",
"Q  c #9DA4B3",
"!  c #94A2BD",
"~  c #9EA7BC",
"^  c #A4A3A4",
"/  c #ABA5A6",
"(  c #ACABAA",
")  c #AFAEB1",
"_  c #B2B2B4",
"`  c #B2B6BD",
"'  c #BCBBBC",
"]  c #C3C0BF",
"[  c #9AA9C3",
"{  c #A1ADC3",
"}  c #A2AECB",
"|  c #A6B4C7",
" . c #ADB7C6",
".. c #A5B1CD",
"X. c #AAB6C9",
"o. c #B7BAC4",
"O. c #B3BBCB",
"+. c #A9B8D2",
"@. c #BEC3CD",
"#. c #B2C1D7",
"$. c #B8C1DA",
"%. c #BDCADF",
"&. c #C5C4C5",
"*. c #CAC9C7",
"=. c #C8C7CA",
"-. c #CDCBCB",
";. c #D1CFCE",
":. c #C5CAD2",
">. c #CCCED6",
",. c #D1CFD1",
"<. c #D2D1D2",
"1. c #DAD7D6",
"2. c #DBDBDA",
"3. c #C2CFE6",
"4. c #C3CFE9",
"5. c #C8D5E4",
"6. c #C5D1EA",
"7. c #C9D4EA",
"8. c #D4D7E2",
"9. c #D8DAE3",
"0. c #D3DBE9",
"q. c #DEE0E8",
"w. c #D6E0F4",
"e. c #DCE5F5",
"r. c #DCE7FD",
"t. c #DFEAFB",
"y. c #E2E1E1",
"u. c #E1E5ED",
"i. c #ECECEB",
"p. c #F0EFED",
"a. c #F0F0EF",
"s. c #E1E9F2",
"d. c #EAEEF5",
"f. c #E4EDFE",
"g. c #F4F5F5",
"h. c #F6F5F6",
"j. c #F6F6F6",
"k. c #F7F7F7",
"l. c #F3F3F3",
"z. c #F8F6F8",
"x. c #F6F8FB",
"c. c #F8F8FA",
"v. c #F9FAFB",
"b. c #F9FAFD",
"n. c #F9FDFF",
"m. c #FEFDFF",
"M. c #FFFFFE",
"N. c white",
"B. c #FEFEFE",
"V. c white",
/* pixels */
"                                                                                                                                ",
"                                                                                                                                ",
"                                                                                                                                ",
"                                                                                                                                ",
"                                                                                                                                ",
"                                                                                                                                ",
"                                                                                                                                ",
"                                                                                                                                ",
"                                                                                                                                ",
"                                                                                                                                ",
"                                                                                                                                ",
"                                                                                                                                ",
"                                                                                                                                ",
"                                                                                                                                ",
"                                                                                                                                ",
"                                                                                                                                ",
"                                                                                                                                ",
"                                                                                                                                ",
"                                                                                                                                ",
"                                                                                                                                ",
"                                                                                                                                ",
"                                                                                                                                ",
"                                                                                                                                ",
"                                                    - o + O O + + O # $ + o                                                     ",
"                                                O z :. .2.2.2.2.2.2.2.2.@.[ f :                                                 ",
"                                                9 0 %.e.m.m.m.m.m.m.m.m.d.3.k y                                                 ",
"                                              O :.6.m.m.m.m.m.m.m.m.m.m.m.m.w.} 5 s                                             ",
"                                              . E 4.m.m.m.m.m.m.m.m.m.m.m.m.e...< y                                             ",
"                                              . E 3.m.m.m.m.m.m.m.m.m.m.m.m.e.} < y                                             ",
"                                              . ! 6.m.m.m.m.m.m.m.m.m.m.m.m.t...1 y                                             ",
"                                              . E $.g.j.j.j.j.k.j.j.j.j.j.j.0.! < i                                             ",
"                                              X p k v v v l h j j h l v v v k d & y                                             ",
"                                              O = & & & & > 3 3 8 8 3 = + $ $ * O a                                             ",
"                                              O 3 e - > > ^ i.i.a.i.&.w 8 - 4 r & a                                             ",
"                                              X x n & w N ,.m.2.<.m.i.V g % k n = y                                             ",
"                                              . Y O.. l m.m.m.M w v.m.m.P . U $.< y                                             ",
"                                              . ` q.P ' m.*.F l y V / m.,.L >.8.6 w                                             ",
"                                              . <.m.m.m.m.G @ 4 w @ u m.m.m.m.p.w w                                             ",
"                                          8 H -. .+.m.2.l ^ <.2.y.1.] l _ m.5.! <.( w                                           ",
"                                          & P m.X.! x.=.s ( g.y.y.l.2.y W b.#.T n.-.> y                                         ",
"                                          & A r.d.z.R | l.;.H y w D ) l.8.S 0.v.f.~ = y                                         ",
"                                          ; f K 9.d.X.O.&._ m , - b H ' o.{ s.u.Q Z t                                           ",
"                                            2 - { 7.m.' > y I y q C M & H m.e.O.7 y                                             ",
"                                            2 - x A _ B 2 9           - v _ J c - >                                             ",
"                                            y w - + 2 8 e               w 9 - &                                                 ",
"                                                      -.                                                                        ",
"                                                                                                                                ",
"                                                                                                                                ",
"                                                                                                                                ",
"                                                                                                                                ",
"                                                                                                                                ",
"                                                                                                                                ",
"                                                                                                                                ",
"                                                                                                                                ",
"                                                                                                                                ",
"                                                                                                                                ",
"                                                                                                                                ",
"                                                                                                                                ",
"                                                                                                                                ",
"                                                                                                                                ",
"                                                                                                                                ",
"                                                                                                                                ",
"                                                                                                                                ",
"                                                                                                                                "
};
