/* XPM */
static char *result[] = {
/* columns rows colors chars-per-pixel */
"64 64 189 2 ",
"   c #0C0B0B",
".  c #060606",
"X  c #110E0D",
"o  c #0C110E",
"O  c #130F12",
"+  c #151414",
"@  c #181515",
"#  c #1A1A17",
"$  c #171719",
"%  c #191719",
"&  c #1C1B1B",
"*  c #17181B",
"=  c #211D1E",
"-  c #2C1F1D",
";  c #29221C",
":  c #1D1D22",
">  c #211F20",
",  c #1F2024",
"<  c #1D2229",
"1  c #232223",
"2  c #292626",
"3  c #292925",
"4  c #26272A",
"5  c #292629",
"6  c #2C2B2C",
"7  c #27292C",
"8  c #322D2D",
"9  c #332725",
"0  c #32312F",
"q  c #2D2D30",
"w  c #322F33",
"e  c #343334",
"r  c #393634",
"t  c #343438",
"y  c #3B373B",
"u  c #3C3B3C",
"i  c #373B38",
"p  c #423D3D",
"a  c #463836",
"s  c #3D403A",
"d  c #41413E",
"f  c #3B3D46",
"g  c #423F43",
"h  c #403D48",
"j  c #434243",
"k  c #494444",
"l  c #444846",
"z  c #494649",
"x  c #4A4A4A",
"c  c #47474A",
"v  c #524D49",
"b  c #534D47",
"n  c #454A52",
"m  c #494C52",
"M  c #504F50",
"N  c #4F5253",
"B  c #4D5059",
"V  c #545354",
"C  c #5A5757",
"Z  c #565659",
"A  c #5A5658",
"S  c #5D5C5C",
"D  c #575C5B",
"F  c #635F5C",
"G  c #61615F",
"H  c #4C5064",
"J  c #565965",
"K  c #5B5D63",
"L  c #5A5D6A",
"P  c #555564",
"I  c #625F62",
"U  c #5F6262",
"Y  c #5C606C",
"T  c #546263",
"R  c #5C667D",
"E  c #626263",
"W  c #686564",
"Q  c #64656B",
"!  c #66696F",
"~  c #6E6C6C",
"^  c #696A64",
"/  c #73706F",
"(  c #6C6D73",
")  c #656974",
"_  c #68707C",
"`  c #727273",
"'  c #7C7A7C",
"]  c #7A7774",
"[  c #847F7C",
"{  c #6F7784",
"}  c #7A7B80",
"|  c #767C8E",
" . c #62799A",
".. c #657BA4",
"X. c #817F81",
"o. c #7E8080",
"O. c #7E8595",
"+. c #7D93B4",
"@. c #838383",
"#. c #898685",
"$. c #84848A",
"%. c #8C8A8A",
"&. c #87888D",
"*. c #908D89",
"=. c #93908F",
"-. c #888C98",
";. c #908E90",
":. c #949293",
">. c #9A9796",
",. c #93959A",
"<. c #9A989F",
"1. c #8A91A2",
"2. c #959DAD",
"3. c #969EB1",
"4. c #8793AF",
"5. c #A09FA2",
"6. c #9BA3B4",
"7. c #9AA8BA",
"8. c #ACACAC",
"9. c #A5A5A4",
"0. c #A8AFBE",
"q. c #B4B2B4",
"w. c #B8B8BA",
"e. c #C1BEBF",
"r. c #93A4C2",
"t. c #9BA7C1",
"y. c #91A8D2",
"u. c #8CA6D4",
"i. c #A2AEC8",
"p. c #A1ABC0",
"a. c #A7B4CD",
"s. c #ADBACC",
"d. c #A6B8D6",
"f. c #ACBAD4",
"g. c #B1BCD2",
"h. c #B2BEDA",
"j. c #C0BFC3",
"k. c #BEC1C6",
"l. c #B4C1D4",
"z. c #BBC4D4",
"x. c #B4C2DD",
"c. c #BCC9DB",
"v. c #BAC6DC",
"b. c #B5E1DB",
"n. c #B4C4E2",
"m. c #B6C8E5",
"M. c #BCCCE3",
"N. c #B8C7E5",
"B. c #BED0E5",
"V. c #C3C2C4",
"C. c #CCCBCC",
"Z. c #CBCBC6",
"A. c #D1CFCF",
"S. c #C5CBD5",
"D. c #C5CBDB",
"F. c #C9D1DC",
"G. c #D3D3D3",
"H. c #D8D8DB",
"J. c #E1DEDD",
"K. c #C2CEE3",
"L. c #C9D6EC",
"P. c #CAD6E8",
"I. c #D4DCED",
"U. c #D8DFE7",
"Y. c #C3CEF0",
"T. c #D2DEF1",
"R. c #C9DAF2",
"E. c #E3DFE1",
"W. c #C2E6E2",
"Q. c #DCE2EB",
"!. c #D5E1ED",
"~. c #D5E0F1",
"^. c #D9E2F3",
"/. c #D3E1F8",
"(. c #E5E5E6",
"). c #E5E6EB",
"_. c #EAEAEB",
"`. c #E8E8E9",
"'. c #F0EFEF",
"]. c #E5EBF2",
"[. c #EDEEF5",
"{. c #ECF2FB",
"}. c #F3F3F3",
"|. c #F9F8F7",
" X c #F4F5FA",
".X c #F6F9FC",
"XX c #FEFEFE",
"oX c #F8F7F7",
"OX c None",
/* pixels */
"OXOXOXOXOXOXOXOXOXOXOXOXOXOXOXOXOXOXOXOXOXOXOXOXOXOXOXOXOXOXOXOXOXOXOXOXOXOXOXOXOXOXOXOXOXOXOXOXOXOXOXOXOXOXOXOXOXOXOXOXOXOXOXOX",
"OXOXOXOXOXOXOXOXOXOXOXOXOXOXOXOXOXOXOXOXOXOXOXOXOXOXOXOXOXOXOXOXOXOXOXOXOXOXOXOXOXOXOXOXOXOXOXOXOXOXOXOXOXOXOXOXOXOXOXOXOXOXOXOX",
"OXOXOXOXOXOXOXOXOXOXOXOXOXOXOXOXOXOXOXOXOXOXOXOXOXOXOXOXOXOXOXOXOXOXOXOXOXOXOXOXOXOXOXOXOXOXOXOXOXOXOXOXOXOXOXOXOXOXOXOXOXOXOXOX",
"OXOXOXOXOXOXOXOXOXOXOXOXOXOXOXOXOXOXOXOXOXOXOXOXOXOXOXOXOXOXOXOXOXOXOXOXOXOXOXOXOXOXOXOXOXOXOXOXOXOXOXOXOXOXOXOXOXOXOXOXOXOXOXOX",
"OXOXOXOXOXOXOXOXOXOXOXOXOXOXOXOXOXOXOXOXOXOXOXOXOXOXOXOXOXOXOXOXOXOXOXOXOXOXOXOXOXOXOXOXOXOXOXOXOXOXOXOXOXOXOXOXOXOXOXOXOXOXOXOX",
"OXOXOXOXOXOXOXOXOXOXOXOXOXOXOXOXOXOXOXOXOXOXOXOXOXOXOXOXOXOXOXOXOXOXOXOXOXOXOXOXOXOXOXOXOXOXOXOXOXOXOXOXOXOXOXOXOXOXOXOXOXOXOXOX",
"OXOXOXOXOXOXOXOXOXOXOXOXOXOXOXOXOXOXOXOXOXOXOXOXOXOXOXOXOXOXOXOXOXOXOXOXOXOXOXOXOXOXOXOXOXOXOXOXOXOXOXOXOXOXOXOXOXOXOXOXOXOXOXOX",
"OXOXOXOXOXOXOXOXOXOXOXOXOXOXOXOXOXOXOXOXOXOXOXOXOXOXOXOXOXOXOXOXOXOXOXOXOXOXOXOXOXOXOXOXOXOXOXOXOXOXOXOXOXOXOXOXOXOXOXOXOXOXOXOX",
"OXOXOXOXOXOXOXOXOXOXOXOXOXOXOXOXOXOXOXOXOXOXOXOXOXOXOXOXOXOXOXOXOXOXOXOXOXOXOXOXOXOXOXOXOXOXOXOXOXOXOXOXOXOXOXOXOXOXOXOXOXOXOXOX",
"OXOXOXOXOXOXOXOXOXOXOXOXOXOXOXOXOXOXOXOXOXOXOXOXOXOXOXOXOXOXOXOXOXOXOXOXOXOXOXOXOXOXOXOXOXOXOXOXOXOXOXOXOXOXOXOXOXOXOXOXOXOXOXOX",
"OXOXOXOXOXOXOXOXOXOXOXOXOXOXOXOXOXOXOXOXOXOXOXOXOXOXOXOXOXOXOXOXOXOXOXOXOXOXOXOXOXOXOXOXOXOXOXOXOXOXOXOXOXOXOXOXOXOXOXOXOXOXOXOX",
"OXOXOXOXOXOXOXOXOXOXOXOXOXOXOXOXOXOXOXOXOXOXOXOXOXOXOX=     .                     X OXOXOXOXOXOXOXOXOXOXOXOXOXOXOXOXOXOXOXOXOXOX",
"OXOXOXOXOXOXOXOXOXOXOXOXOXOXOXOXOXOXOXOXOXOXOXOXOXOXOXm m S G G E E E G S G E G V c OXOXOXOXOXOXOXOXOXOXOXOXOXOXOXOXOXOXOXOXOXOX",
"OXOXOXOXOXOXOXOXOXOXOXOXOXOXOXOXOXOXOXOXOXOXOXOXOX+ @ d.d..XXXXXXXXXXXXXXXXXXXXXN.m.g X OXOXOXOXOXOXOXOXOXOXOXOXOXOXOXOXOXOXOXOX",
"OXOXOXOXOXOXOXOXOXOXOXOXOXOXOXOXOXOXOXOXOXOXOXOXOX5 > c.c..XXXXXXXXXXXXXXXXXXXXXD.c.V 1 OXOXOXOXOXOXOXOXOXOXOXOXOXOXOXOXOXOXOXOX",
"OXOXOXOXOXOXOXOXOXOXOXOXOXOXOXOXOXOXOXOXOXOXOX+ 1 OXh.XXXXXXXXXXXXXXXXXXXXXXXXXXXXXXR.m.L   OXOXOXOXOXOXOXOXOXOXOXOXOXOXOXOXOXOX",
"OXOXOXOXOXOXOXOXOXOXOXOXOXOXOXOXOXOXOXOXOXOXOX+ 1 m.h..XXXXXXXXXXXXXXXXXXXXXXXXXXXXXT.x.L   OXOXOXOXOXOXOXOXOXOXOXOXOXOXOXOXOXOX",
"OXOXOXOXOXOXOXOXOXOXOXOXOXOXOXOXOXOXOXOXOXOXOX+ 1 N.h.XXXXXXXXXXXXXXXXXXXXXXXXXXXX.XT.n.J   OXOXOXOXOXOXOXOXOXOXOXOXOXOXOXOXOXOX",
"OXOXOXOXOXOXOXOXOXOXOXOXOXOXOXOXOXOXOXOXOXOXOX+ 1 N.l.XXXXXXXXXXXXXXXXXXXXXXXXXXXXXX~.n.J   OXOXOXOXOXOXOXOXOXOXOXOXOXOXOXOXOXOX",
"OXOXOXOXOXOXOXOXOXOXOXOXOXOXOXOXOXOXOXOXOXOXOX+ 1 N.f.XXXXXXXXXXXXXXXXXXXXXXXXXXXXXXI.n.J   OXOXOXOXOXOXOXOXOXOXOXOXOXOXOXOXOXOX",
"OXOXOXOXOXOXOXOXOXOXOXOXOXOXOXOXOXOXOXOXOXOXOX+ & Y.g..XXXXXXXXXXXXXXXXXXXXXXXXXXXXXI.h.P   OXOXOXOXOXOXOXOXOXOXOXOXOXOXOXOXOXOX",
"OXOXOXOXOXOXOXOXOXOXOXOXOXOXOXOXOXOXOXOXOXOXOX+ # Y Y @.@.o.@.@.@.#.@.#.@.@.@.@.@.@.) Y w   OXOXOXOXOXOXOXOXOXOXOXOXOXOXOXOXOXOX",
"OXOXOXOXOXOXOXOXOXOXOXOXOXOXOXOXOXOXOXOXOXOXOX+ & 3 3 & + & @ O             # & # & , 1 5 . OXOXOXOXOXOXOXOXOXOXOXOXOXOXOXOXOXOX",
"OXOXOXOXOXOXOXOXOXOXOXOXOXOXOXOXOXOXOXOXOXOXOX+ : & & * 1 ; 6 ~ #.%.%.%.=.#.e ; & & & # =   OXOXOXOXOXOXOXOXOXOXOXOXOXOXOXOXOXOX",
"OXOXOXOXOXOXOXOXOXOXOXOXOXOXOXOXOXOXOXOXOXOXOX+ = r b # 1 2 1 j.XXXXXXXXXX'.y C > > r v 8   OXOXOXOXOXOXOXOXOXOXOXOXOXOXOXOXOXOX",
"OXOXOXOXOXOXOXOXOXOXOXOXOXOXOXOXOXOXOXOXOXOXOX+ : _ ' = + ] #.H.XX}.e.(.XX|.#.@.1 @ L $.t   OXOXOXOXOXOXOXOXOXOXOXOXOXOXOXOXOXOX",
"OXOXOXOXOXOXOXOXOXOXOXOXOXOXOXOXOXOXOXOXOXOXOX# 1 a.z.< * V.|.XXXXV.# } |.XX|.|.y @ 1.L.H + OXOXOXOXOXOXOXOXOXOXOXOXOXOXOXOXOXOX",
"OXOXOXOXOXOXOXOXOXOXOXOXOXOXOXOXOXOXOXOXOXOXOX+ 1 S.D.c p G.XX}.E.w.6 ' `._.XXXXM p 6.I.L   OXOXOXOXOXOXOXOXOXOXOXOXOXOXOXOXOXOX",
"OXOXOXOXOXOXOXOXOXOXOXOXOXOXOXOXOXOXOXOXOXOXOX  q .XXXXXXXXXXX*.; 8 u p - a .XXXXX|.XXXX#.. OXOXOXOXOXOXOXOXOXOXOXOXOXOXOXOXOXOX",
"OXOXOXOXOXOXOXOXOXOXOXOXOXOXOXOXOXOXOXOXOXOXOX@ 6 XXXXXXXXXXXX[ ; a k k 9 a XXXXXXXXXXXXX.X OXOXOXOXOXOXOXOXOXOXOXOXOXOXOXOXOXOX",
"OXOXOXOXOXOXOXOXOXOXOXOXOXOXOXOXOXOXOXOXOX# Z }._.t.y..XXX%.5 C.|.|..X|.oX'.x V }.XXM...Q.}.OX+ V OXOXOXOXOXOXOXOXOXOXOXOXOXOXOX",
"OXOXOXOXOXOXOXOXOXOXOXOXOXOXOXOXOXOXOXOXOXX Z XX.X4.+..XXX' 2 w.XXXXXXXXXX}.k i }..Xl...Q.XX8.  M OXOXOXOXOXOXOXOXOXOXOXOXOXOXOX",
"OXOXOXOXOXOXOXOXOXOXOXOXOXOXOXOXOXOXOXd q + l W.W.]. Xz.i.H.H.e.8.E x D 9.8.H.H.k.a.U.[.{.K.O.  V OXOXOXOXOXOXOXOXOXOXOXOXOXOXOX",
"OXOXOXOXOXOXOXOXOXOXOXOXOXOXOXOXOXOXOX# & * s b.b.|..Xr. .{.XXC.[ w 1 5 ' %.XX.X0. . XXX[.d.|   V OXOXOXOXOXOXOXOXOXOXOXOXOXOXOX",
"OXOXOXOXOXOXOXOXOXOXD OXS K S S S S j j 0 6 6 T T !.I.U.).:.` @.%.x 8 u @.' ` ` S.Q.&.` Q ) L ( OXOXOXOXOXOXOXOXOXOXOXOXOXOXOXOX",
"OXOXOXOXOXOXOXOXOXOX# # @ & # & $ $ e %.c u t # 7 R.c..XXXV + e 8.I 5 z %.[ & 1 _.XXS +     E oXOXOXOXOXOXOXOXOXOXOXOXOXOXOXOXOX",
"OXOXOXOXOXOXOXOXOXOX& & 6 6 2 2 2 6 0 c t t e 3 3 L ! w.w.C d p / ' 8.>.W Z 6 6 X.:.L Y &.>.@.Z OXOXOXOXOXOXOXOXOXOXOXOXOXOXOXOX",
"OXOXOXOXOXOXOXOXOXOX# * S G u j u u u j p i p z z & + # = 1 w r e :.XXA.p u t k : & 0.B. XXX8.  V OXOXOXOXOXOXOXOXOXOXOXOXOXOXOX",
"OXOXOXOXOXOXOXOXOXOXV V u j r p e u u f f ) n k j % $ @.>.=.:.;.#.q.].S.@.#.%.%.= % _ -.).XX8.  V OXOXOXOXOXOXOXOXOXOXOXOXOXOXOX",
"OXOXOXOXOXOXOXOXOXOXOXOX  + Z ` u u r u { ^.S.W ~ % & (.XXXXXXXXXX.Xr.!.XXXXXXXXw # F C ).XX8.. V OXOXOXOXOXOXOXOXOXOXOXOXOXOXOX",
"OXOXOXOXOXOXOXOXOXOXOXOXr r N V u r i e B 0.-.@.' @ & _.XX.X X[.(.Q.6.F._._.oXoXq * e p q.J.OX2 OXOXOXOXOXOXOXOXOXOXOXOXOXOXOXOX",
"OXOXOXOXOXOXOXOXOXOXOXOXOXOX2 # * & * * # * B oX'.+ & `.XXK.B.| U U Z D S Q n.c.< $ & & = # OXOXOXOXOXOXOXOXOXOXOXOXOXOXOXOXOXOX",
"OXOXOXOXOXOXOXOXOXOXOXOXOXOX6 & & = : ; + # x .X_.@ = ).XXP.L.O.U Q ~ F E Q c.F.: : % + + # OXOXOXOXOXOXOXOXOXOXOXOXOXOXOXOXOXOX",
"OXOXOXOXOXOXOXOXOXOXOXOXOXOXOXOXOXOXOXOXOX@ 3 ~ V @ % S ~ Z ` -.K.{.|..Xf.g.K E S ~ 2 # OXOXOXOXOXOXOXOXOXOXOXOXOXOXOXOXOXOXOXOX",
"OXOXOXOXOXOXOXOXOXOXOXOXOXOXOXOXOXOXOXOXOX+ ; ^ F O % Z I S A 1.i.{.XX.Xg.z.E E I S 5 + OXOXOXOXOXOXOXOXOXOXOXOXOXOXOXOXOXOXOXOX",
"OXOXOXOXOXOXOXOXOXOXOXOXOXOXOXOXOXOXOXOXOXOXOX1 5 % % 6.z.).`.oX XG.' $.! ! E I 6.n.f   OXOXOXOXOXOXOXOXOXOXOXOXOXOXOXOXOXOXOXOX",
"OXOXOXOXOXOXOXOXOXOXOXOXOXOXOXOXOXOXOXOXOXOXOX  % * & s.z.oX|.XXXXV.g C ` Q Q I K.T.f X OXOXOXOXOXOXOXOXOXOXOXOXOXOXOXOXOXOXOXOX",
"OXOXOXOXOXOXOXOXOXOXOXOXOXOXOXOXOXOXOXOXOXOXOXOXOX# $ f n Q E e.XX}.J.q.& 6 2.6.n m OXOXOXOXOXOXOXOXOXOXOXOXOXOXOXOXOXOXOXOXOXOX",
"OXOXOXOXOXOXOXOXOXOXOXOXOXOXOXOXOXOXOXOXOXOXOXOXOX@ & & , # + 5.XXXXXXZ.+ 4 /.!.4 o OXOXOXOXOXOXOXOXOXOXOXOXOXOXOXOXOXOXOXOXOXOX",
"OXOXOXOXOXOXOXOXOXOXOXOXOXOXOXOXOXOXOXOXOXOXOXOXOXOXOXOXOX0 + 2. X{.{.k.+ ; R Y OXOXOXOXOXOXOXOXOXOXOXOXOXOXOXOXOXOXOXOXOXOXOXOX",
"OXOXOXOXOXOXOXOXOXOXOXOXOXOXOXOXOXOXOXOXOXOXOXOXOXOXOXOXOXV X { y.u.OXOXO * X + OXOXOXOXOXOXOXOXOXOXOXOXOXOXOXOXOXOXOXOXOXOXOXOX",
"OXOXOXOXOXOXOXOXOXOXOXOXOXOXOXOXOXOXOXOXOXOXOXOXOXOXOXOXOXf O ,.{.].OXOX$ 1 x p OXOXOXOXOXOXOXOXOXOXOXOXOXOXOXOXOXOXOXOXOXOXOXOX",
"OXOXOXOXOXOXOXOXOXOXOXOXOXOXOXOXOXOXOXOXOXOXOXOXOXOXOXOXOXt + OXOXXXOXOX+ : 8.OXOXOXOXOXOXOXOXOXOXOXOXOXOXOXOXOXOXOXOXOXOXOXOXOX",
"OXOXOXOXOXOXOXOXOXOXOXOXOXOXOXOXOXOXOXOXOXOXOXOXOXOXOXOXOXF u OXOXOXOXOXs c OXOXOXOXOXOXOXOXOXOXOXOXOXOXOXOXOXOXOXOXOXOXOXOXOXOX",
"OXOXOXOXOXOXOXOXOXOXOXOXOXOXOXOXOXOXOXOXOXOXOXOXOXOXOXOXOXOXOXOXOXOXOXOXOXOXOXOXOXOXOXOXOXOXOXOXOXOXOXOXOXOXOXOXOXOXOXOXOXOXOXOX",
"OXOXOXOXOXOXOXOXOXOXOXOXOXOXOXOXOXOXOXOXOXOXOXOXOXOXOXOXOXOXOXOXOXOXOXOXOXOXOXOXOXOXOXOXOXOXOXOXOXOXOXOXOXOXOXOXOXOXOXOXOXOXOXOX",
"OXOXOXOXOXOXOXOXOXOXOXOXOXOXOXOXOXOXOXOXOXOXOXOXOXOXOXOXOXOXOXOXOXOXOXOXOXOXOXOXOXOXOXOXOXOXOXOXOXOXOXOXOXOXOXOXOXOXOXOXOXOXOXOX",
"OXOXOXOXOXOXOXOXOXOXOXOXOXOXOXOXOXOXOXOXOXOXOXOXOXOXOXOXOXOXOXOXOXOXOXOXOXOXOXOXOXOXOXOXOXOXOXOXOXOXOXOXOXOXOXOXOXOXOXOXOXOXOXOX",
"OXOXOXOXOXOXOXOXOXOXOXOXOXOXOXOXOXOXOXOXOXOXOXOXOXOXOXOXOXOXOXOXOXOXOXOXOXOXOXOXOXOXOXOXOXOXOXOXOXOXOXOXOXOXOXOXOXOXOXOXOXOXOXOX",
"OXOXOXOXOXOXOXOXOXOXOXOXOXOXOXOXOXOXOXOXOXOXOXOXOXOXOXOXOXOXOXOXOXOXOXOXOXOXOXOXOXOXOXOXOXOXOXOXOXOXOXOXOXOXOXOXOXOXOXOXOXOXOXOX",
"OXOXOXOXOXOXOXOXOXOXOXOXOXOXOXOXOXOXOXOXOXOXOXOXOXOXOXOXOXOXOXOXOXOXOXOXOXOXOXOXOXOXOXOXOXOXOXOXOXOXOXOXOXOXOXOXOXOXOXOXOXOXOXOX",
"OXOXOXOXOXOXOXOXOXOXOXOXOXOXOXOXOXOXOXOXOXOXOXOXOXOXOXOXOXOXOXOXOXOXOXOXOXOXOXOXOXOXOXOXOXOXOXOXOXOXOXOXOXOXOXOXOXOXOXOXOXOXOXOX",
"OXOXOXOXOXOXOXOXOXOXOXOXOXOXOXOXOXOXOXOXOXOXOXOXOXOXOXOXOXOXOXOXOXOXOXOXOXOXOXOXOXOXOXOXOXOXOXOXOXOXOXOXOXOXOXOXOXOXOXOXOXOXOXOX",
"OXOXOXOXOXOXOXOXOXOXOXOXOXOXOXOXOXOXOXOXOXOXOXOXOXOXOXOXOXOXOXOXOXOXOXOXOXOXOXOXOXOXOXOXOXOXOXOXOXOXOXOXOXOXOXOXOXOXOXOXOXOXOXOX"
};
