/* XPM */
static char *result[] = {
/* columns rows colors chars-per-pixel */
"64 64 188 2 ",
"   c #050505",
".  c #0C0B0B",
"X  c #090605",
"o  c #100D0E",
"O  c #0E110F",
"+  c #13110D",
"@  c #151414",
"#  c #181515",
"$  c #1A1A17",
"%  c #17171A",
"&  c #191718",
"*  c #16181C",
"=  c #1C1A1B",
"-  c #211E1E",
";  c #2C1F1D",
":  c #22211E",
">  c #2B221B",
",  c #1D1D21",
"<  c #211F20",
"1  c #1F2024",
"2  c #242224",
"3  c #292625",
"4  c #252629",
"5  c #292629",
"6  c #2D2B2C",
"7  c #292827",
"8  c #322E2D",
"9  c #342826",
"0  c #33302F",
"q  c #2F2F31",
"w  c #312F33",
"e  c #343233",
"r  c #3A3633",
"t  c #393936",
"y  c #34343A",
"u  c #3A3639",
"i  c #3B3A3B",
"p  c #423D3D",
"a  c #463837",
"s  c #41403E",
"d  c #3F3E46",
"f  c #373C44",
"g  c #413E40",
"h  c #434243",
"j  c #4A4444",
"k  c #44454C",
"l  c #4D4C4B",
"z  c #494849",
"x  c #534D47",
"c  c #524E4F",
"v  c #464A51",
"b  c #4C4D52",
"n  c #4D4F58",
"m  c #504F51",
"M  c #4F5153",
"N  c #535353",
"B  c #595556",
"V  c #555559",
"C  c #5C5C5C",
"Z  c #57585C",
"A  c #625E5E",
"S  c #62615E",
"D  c #4B4F63",
"F  c #495060",
"G  c #565965",
"H  c #5B5D64",
"J  c #5A5D6B",
"K  c #545664",
"L  c #615E60",
"P  c #5C616B",
"I  c #5D6165",
"U  c #5E6174",
"Y  c #626263",
"T  c #686565",
"R  c #6D6D6C",
"E  c #68666D",
"W  c #706E6C",
"Q  c #626773",
"!  c #6D6C72",
"~  c #696D7D",
"^  c #676B72",
"/  c #736E70",
"(  c #68717C",
")  c #737273",
"_  c #7D7C7C",
"`  c #797778",
"'  c #827F7C",
"]  c #5C789B",
"[  c #6B7585",
"{  c #6D758A",
"}  c #6E7B8F",
"|  c #757A87",
" . c #7C7C80",
".. c #607899",
"X. c #687CA5",
"o. c #837F81",
"O. c #7E8186",
"+. c #7B8493",
"@. c #7C92B3",
"#. c #838383",
"$. c #8A8685",
"%. c #85868C",
"&. c #8D8B8A",
"*. c #898788",
"=. c #908D8C",
"-. c #93908F",
";. c #858B9A",
":. c #878B94",
">. c #918F91",
",. c #8F949F",
"<. c #959699",
"1. c #979697",
"2. c #858EA8",
"3. c #8C93A0",
"4. c #8A9AB8",
"5. c #9AA6BA",
"6. c #A1A1A1",
"7. c #ACAAAB",
"8. c #A8A7A8",
"9. c #B2AFAD",
"0. c #A1AABB",
"q. c #B2B2B6",
"w. c #BBBABB",
"e. c #C1BEBF",
"r. c #8EA3C9",
"t. c #9BA5C3",
"y. c #96A7C7",
"u. c #8DA4D3",
"i. c #A2AFC9",
"p. c #A7B5CC",
"a. c #A9B5CC",
"s. c #A8B1C1",
"d. c #BABDC5",
"f. c #ACB7D4",
"g. c #ADBAD4",
"h. c #A8BAD8",
"j. c #B3BDD5",
"k. c #B1BED9",
"l. c #B9BED0",
"z. c #AABEE0",
"x. c #B7C2D6",
"c. c #BDC5D4",
"v. c #B4C2DB",
"b. c #BAC6DA",
"n. c #BDC8DC",
"m. c #B4C4E2",
"M. c #B9C6E4",
"N. c #B7C9E5",
"B. c #BCCAE3",
"V. c #CDCBCC",
"C. c #C5C3C6",
"Z. c #D0CECD",
"A. c #C6CDD9",
"S. c #CCD2DB",
"D. c #D4D4D4",
"F. c #D8D8DB",
"G. c #C0CCE3",
"H. c #C0CEEA",
"J. c #C9D4EA",
"K. c #CED9EC",
"L. c #C8D4E6",
"P. c #D6DCE4",
"I. c #D4DDEC",
"U. c #DFDDE0",
"Y. c #C2CEF0",
"T. c #CDDBF4",
"R. c #D5DDF0",
"E. c #D1DFFC",
"W. c #E0DFE1",
"Q. c #DCE2EC",
"!. c #D4E0F1",
"~. c #DCE5F3",
"^. c #D8E5FD",
"/. c #E6E4E5",
"(. c #E4E5ED",
"). c #EBEBEC",
"_. c #E9E7E8",
"`. c #F0F1EE",
"'. c #E5EBF2",
"]. c #EAECF3",
"[. c #E1EAFB",
"{. c #EEF2FB",
"}. c #F3F3F3",
"|. c #F8F8F7",
" X c #F5F6F9",
".X c #F6F9FD",
"XX c #FEFEFE",
"oX c None",
/* pixels */
"oXoXoXoXoXoXoXoXoXoXoXoXoXoXoXoXoXoXoXoXoXoXoXoXoXoXoXoXoXoXoXoXoXoXoXoXoXoXoXoXoXoXoXoXoXoXoXoXoXoXoXoXoXoXoXoXoXoXoXoXoXoXoXoX",
"oXoXoXoXoXoXoXoXoXoXoXoXoXoXoXoXoXoXoXoXoXoXoXoXoXoXoXoXoXoXoXoXoXoXoXoXoXoXoXoXoXoXoXoXoXoXoXoXoXoXoXoXoXoXoXoXoXoXoXoXoXoXoXoX",
"oXoXoXoXoXoXoXoXoXoXoXoXoXoXoXoXoXoXoXoXoXoXoXoXoXoXoXoXoXoXoXoXoXoXoXoXoXoXoXoXoXoXoXoXoXoXoXoXoXoXoXoXoXoXoXoXoXoXoXoXoXoXoXoX",
"oXoXoXoXoXoXoXoXoXoXoXoXoXoXoXoXoXoXoXoXoXoXoXoXoXoXoXoXoXoXoXoXoXoXoXoXoXoXoXoXoXoXoXoXoXoXoXoXoXoXoXoXoXoXoXoXoXoXoXoXoXoXoXoX",
"oXoXoXoXoXoXoXoXoXoXoXoXoXoXoXoXoXoXoXoXoXoXoXoXoXoXoXoXoXoXoXoXoXoXoXoXoXoXoXoXoXoXoXoXoXoXoXoXoXoXoXoXoXoXoXoXoXoXoXoXoXoXoXoX",
"oXoXoXoXoXoXoXoXoXoXoXoXoXoXoXoXoXoXoXoXoXoXoXoXoXoXoXoXoXoXoXoXoXoXoXoXoXoXoXoXoXoXoXoXoXoXoXoXoXoXoXoXoXoXoXoXoXoXoXoXoXoXoXoX",
"oXoXoXoXoXoXoXoXoXoXoXoXoXoXoXoXoXoXoXoXoXoXoXoXoXoXoXoXoXoXoXoXoXoXoXoXoXoXoXoXoXoXoXoXoXoXoXoXoXoXoXoXoXoXoXoXoXoXoXoXoXoXoXoX",
"oXoXoXoXoXoXoXoXoXoXoXoXoXoXoXoXoXoXoXoXoXoXoXoXoXoXoXoXoXoXoXoXoXoXoXoXoXoXoXoXoXoXoXoXoXoXoXoXoXoXoXoXoXoXoXoXoXoXoXoXoXoXoXoX",
"oXoXoXoXoXoXoXoXoXoXoXoXoXoXoXoXoXoXoXoXoXoXoXoXoXoXoXoXoXoXoXoXoXoXoXoXoXoXoXoXoXoXoXoXoXoXoXoXoXoXoXoXoXoXoXoXoXoXoXoXoXoXoXoX",
"oXoXoXoXoXoXoXoXoXoXoXoXoXoXoXoXoXoXoXoXoXoXoXoXoXoXoXoXoXoXoXoXoXoXoXoXoXoXoXoXoXoXoXoXoXoXoXoXoXoXoXoXoXoXoXoXoXoXoXoXoXoXoXoX",
"oXoXoXoXoXoXoXoXoXoXoXoXoXoXoXoXoXoXoXoXoXoXoXoXoXoXoXoXoXoXoX< . . . . . . . . . . . . . . oXoXoXoXoXoXoXoXoXoXoXoXoXoXoXoXoXoX",
"oXoXoXoXoXoXoXoXoXoXoXoXoXoXoXoXoXoXoXoXoXoXoXoXoXoXoXoXoXoXoXb l C S C S Y S S C S S A V z oXoXoXoXoXoXoXoXoXoXoXoXoXoXoXoXoXoX",
"oXoXoXoXoXoXoXoXoXoXoXoXoXoXoXoXoXoXoXoXoXoXoXoXoXoXoXoXoX@ # h.h..XXXXXXXXXXXXXXXXXXXXXB.N.d o oXoXoXoXoXoXoXoXoXoXoXoXoXoXoXoX",
"oXoXoXoXoXoXoXoXoXoXoXoXoXoXoXoXoXoXoXoXoXoXoXoXoXoXoXoXoX5 , b.b..XXXXXXXXXXXXXXXXXXXXXA.n.N < oXoXoXoXoXoXoXoXoXoXoXoXoXoXoXoX",
"oXoXoXoXoXoXoXoXoXoXoXoXoXoXoXoXoXoXoXoXoXoXoXoXoXoXoX@ , oXv..XXXXXXXXXXXXXXXXXXXXXXXXXXXXXK.N.J . oXoXoXoXoXoXoXoXoXoXoXoXoXoX",
"oXoXoXoXoXoXoXoXoXoXoXoXoXoXoXoXoXoXoXoXoXoXoXoXoXoXoX@ 2 N.k.XXXXXXXXXXXXXXXXXXXXXXXXXXXXXX!.m.H . oXoXoXoXoXoXoXoXoXoXoXoXoXoX",
"oXoXoXoXoXoXoXoXoXoXoXoXoXoXoXoXoXoXoXoXoXoXoXoXoXoXoX@ 2 N.v.XXXXXXXXXXXXXXXXXXXXXXXXXXXXXX!.m.K . oXoXoXoXoXoXoXoXoXoXoXoXoXoX",
"oXoXoXoXoXoXoXoXoXoXoXoXoXoXoXoXoXoXoXoXoXoXoXoXoXoXoX@ 2 N.k.XXXXXXXXXXXXXXXXXXXXXXXXXXXXXXI.m.K . oXoXoXoXoXoXoXoXoXoXoXoXoXoX",
"oXoXoXoXoXoXoXoXoXoXoXoXoXoXoXoXoXoXoXoXoXoXoXoXoXoXoXO - M.j.XXXXXXXXXXXXXXXXXXXXXXXXXXXXXXT.v.G . oXoXoXoXoXoXoXoXoXoXoXoXoXoX",
"oXoXoXoXoXoXoXoXoXoXoXoXoXoXoXoXoXoXoXoXoXoXoXoXoXoXoX@ = Y.g.XXXXXXXXXXXXXXXXXXXXXXXXXXXXXXI.v.K . oXoXoXoXoXoXoXoXoXoXoXoXoXoX",
"oXoXoXoXoXoXoXoXoXoXoXoXoXoXoXoXoXoXoXoXoXoXoXoXoXoXoX@ $ P J #.#.#.o.#.o.#.$.#.#.#.#.#.#.O.E P y . oXoXoXoXoXoXoXoXoXoXoXoXoXoX",
"oXoXoXoXoXoXoXoXoXoXoXoXoXoXoXoXoXoXoXoXoXoXoXoXoXoXoX@ = 3 3 = @ = = . . . . . . o = - = = 2 : 5   oXoXoXoXoXoXoXoXoXoXoXoXoXoX",
"oXoXoXoXoXoXoXoXoXoXoXoXoXoXoXoXoXoXoXoXoXoXoXoXoXoXoX@ = , = = 2 : 7 R $.*.&.-.=.$.e = = = - $ <   oXoXoXoXoXoXoXoXoXoXoXoXoXoX",
"oXoXoXoXoXoXoXoXoXoXoXoXoXoXoXoXoXoXoXoXoXoXoXoXoXoXoX@ - t x = 1 3 2 C.XXXXXXXXXX}.i B - - r x w . oXoXoXoXoXoXoXoXoXoXoXoXoXoX",
"oXoXoXoXoXoXoXoXoXoXoXoXoXoXoXoXoXoXoXoXoXoXoXoXoXoXoX@ , (  ., @ ` $.F.XX}.w./.XX|.$.$.2 @ J %.y . oXoXoXoXoXoXoXoXoXoXoXoXoXoX",
"oXoXoXoXoXoXoXoXoXoXoXoXoXoXoXoXoXoXoXoXoXoXoXoXoXoXoX% 1 p.c., & C.|.XXXXC.& _ |.XX|.|.u & 2.J.D @ oXoXoXoXoXoXoXoXoXoXoXoXoXoX",
"oXoXoXoXoXoXoXoXoXoXoXoXoXoXoXoXoXoXoXoXoXoXoXoXoXoXoX@ 2 A.A.h s D.XX}./.w.6 _ /._.XXXXN a 5.R.G . oXoXoXoXoXoXoXoXoXoXoXoXoXoX",
"oXoXoXoXoXoXoXoXoXoXoXoXoXoXoXoXoXoXoXoXoXoXoXoXoXoXoX. 6 XXXXXXXXXXXX&.- 9 p i ; p XXXXXXXX|.XX*.  oXoXoXoXoXoXoXoXoXoXoXoXoXoX",
"oXoXoXoXoXoXoXoXoXoXoXoXoXoXoXoXoXoXoXoXoXoXoXoXoXoXoX@ 6 XXXXXXXXXXXX' > a j j 9 a XXXXXXXXXXXX .o oXoXoXoXoXoXoXoXoXoXoXoXoXoX",
"oXoXoXoXoXoXoXoXoXoXoXoXoXoXoXoXoXoXoXoXoXoXoXoXoX= B }.).t.r..XXX=.3 V.|.|.|.|.|.}.z M }.XXB.X.Q.|.oX# N oXoXoXoXoXoXoXoXoXoXoX",
"oXoXoXoXoXoXoXoXoXoXoXoXoXoXoXoXoXoXoXoXoXoXoXoXoX@ B XX X2.@..XXX` 4 w.XXXXXXXXXX}.j d }.XXx...Q.XX8.o m oXoXoXoXoXoXoXoXoXoXoX",
"oXoXoXoXoXoXoXoXoXoXoXoXoXoXoXoXoXoXm p h h h g w % k K.J.'. Xx.p.F.F.w.7.T l B 6.7.D.F.c.p.I.].Q.K.+.. N oXoXoXoXoXoXoXoXoXoXoX",
"oXoXoXoXoXoXoXoXoXoXoXoXoXoXoXoXoXoX6 & @ % * & @ = y x.n.XX.X5.] {.XXV.#.e 2 4 _ -.XXXXt.] {.XXQ.J.[ X b oXoXoXoXoXoXoXoXoXoXoX",
"oXoXoXoXoXoXoXoXoXoXB oXH C C C C C i s q e e e e w q Z G I.K.P.(.<.) #.$.l 8 t #.o.) / S.Q.!.~.+.I oXoXoXoXoXoXoXoXoXoXoXoXoXoX",
"oXoXoXoXoXoXoXoXoXoX@ = # = = = @ % C o.i i t t e i e = 4 K.x.XXXXN @ e 9.A 4 z &._ = - ).XXK.K.K + oXoXoXoXoXoXoXoXoXoXoXoXoXoX",
"oXoXoXoXoXoXoXoXoXoX$ 2 0 2 2 2 7 6 i k i t i s i t e 3 4 J Q q.q.N p p W ' 8.1.T C e 8 6.w.O.U H oXoXoXoXoXoXoXoXoXoXoXoXoXoXoX",
"oXoXoXoXoXoXoXoXoXoX@ q T N h s i i d h i t g h d t i t u - @ : 3 6 e t e <.XXV.u u e i 6 < & @ <.oXoXoXoXoXoXoXoXoXoXoXoXoXoXoX",
"oXoXoXoXoXoXoXoXoXoXm l i i i i i t i i b P v i R ` ` P J 2 - ' =.&.=.&.#.q.'.S.#.$.$.*.=.1.u o Y oXoXoXoXoXoXoXoXoXoXoXoXoXoXoX",
"oXoXoXoXoXoXoXoXoXoXoXoX. 2 R Y t t i i 0.~.d.w V.|.XXf.B.e i `.XXXXXXXXXX.X5.R.XXXXXXXXXXXXZ o $   oXoXoXoXoXoXoXoXoXoXoXoXoXoX",
"oXoXoXoXoXoXoXoXoXoXoXoX0 i B l y t t e | 5.;.H V.XX.Xp.k.6 y )..X}..X]./.Q.5.S.).). X|.|.XXB @ q i oXoXoXoXoXoXoXoXoXoXoXoXoXoX",
"oXoXoXoXoXoXoXoXoXoXoXoXoXoX+ = = = = = = @ <.XXXXXXXXa.j.@ & t.k.z.m.+.C H V C H E H.g.|.XXN @ [ E.oX. M oXoXoXoXoXoXoXoXoXoXoX",
"oXoXoXoXoXoXoXoXoXoXoXoXoXoX= = , = = = $ @ 6.XXXXXX.Xf.k.& $ g.N.v.H.,.Y I ) A A / B.k.|.XXm @ [ ^.{ . N oXoXoXoXoXoXoXoXoXoXoX",
"oXoXoXoXoXoXoXoXoXoXoXoXoXoXoXoXoXoXoXoXB + p W m t e $ = = @ V L C Y ;.n.~..X.Xv.m.Y Y Y E 6 & [ ^.{ . N oXoXoXoXoXoXoXoXoXoXoX",
"oXoXoXoXoXoXoXoXoXoXoXoXoXoXoXoXoXoXoXoXl @ t W l i e # # = # B L C L 3.j..X|..Xa.j.A A C L 5 & [ ^.oX. N oXoXoXoXoXoXoXoXoXoXoX",
"oXoXoXoXoXoXoXoXoXoXoXoXoXoXoXoXoXoXoXoXoXoXA 4 < < d oXoX@ # t.j.! C ! I  .o.8.|..X/._.l.j.f @ 7 i oXoXoXoXoXoXoXoXoXoXoXoXoXoX",
"oXoXoXoXoXoXoXoXoXoXoXoXoXoXoXoXoXoXoXoXoXoXC $ @ @ e oXoX# $ k.!.| L L ) T i #.XXXXXXXXL.G.h @ % O C oXoXoXoXoXoXoXoXoXoXoXoXoX",
"oXoXoXoXoXoXoXoXoXoXoXoXoXoXoXoXoXoXoXoXoXoXoXoXoXoXoXoXoXoXoXV n } s.v : ) D._.XX|.E R v k oXoXoXoXoXoXoXoXoXoXoXoXoXoXoXoXoXoX",
"oXoXoXoXoXoXoXoXoXoXoXoXoXoXoXoXoXoXoXoXoXoXoXoXoXoXoXoXoXoXoX3 @ 5.[.U + #.XXXXXX).= $ + @ oXoXoXoXoXoXoXoXoXoXoXoXoXoXoXoXoXoX",
"oXoXoXoXoXoXoXoXoXoXoXoXoXoXoXoXoXoXoXoXoXoXoXoXoXoXoXoXoXoXoXoXoXoX~ f .  .{.{.{.Q.< @ oXoXoXoXoXoXoXoXoXoXoXoXoXoXoXoXoXoXoXoX",
"oXoXoXoXoXoXoXoXoXoXoXoXoXoXoXoXoXoXoXoXoXoXoXoXoXoXoXoXoXoXoXoXoXj o , @ D r.u.r.r.* = oXoXoXoXoXoXoXoXoXoXoXoXoXoXoXoXoXoXoXoX",
"oXoXoXoXoXoXoXoXoXoXoXoXoXoXoXoXoXoXoXoXoXoXoXoXoXoXoXoXoXoXoXoXoXoXl q o ` {.'.].P.= , oXoXoXoXoXoXoXoXoXoXoXoXoXoXoXoXoXoXoXoX",
"oXoXoXoXoXoXoXoXoXoXoXoXoXoXoXoXoXoXoXoXoXoXoXoXoXoXoXoXoXoXoXoXoXoXoXN .  .XXXXoXoX* @ oXoXoXoXoXoXoXoXoXoXoXoXoXoXoXoXoXoXoXoX",
"oXoXoXoXoXoXoXoXoXoXoXoXoXoXoXoXoXoXoXoXoXoXoXoXoXoXoXoXoXoXoXoXoXoXoXoXt oXoXoXoXoXh h oXoXoXoXoXoXoXoXoXoXoXoXoXoXoXoXoXoXoXoX",
"oXoXoXoXoXoXoXoXoXoXoXoXoXoXoXoXoXoXoXoXoXoXoXoXoXoXoXoXoXoXoXoXoXoXoXoXoXoXoXoXoXoXoXoXoXoXoXoXoXoXoXoXoXoXoXoXoXoXoXoXoXoXoXoX",
"oXoXoXoXoXoXoXoXoXoXoXoXoXoXoXoXoXoXoXoXoXoXoXoXoXoXoXoXoXoXoXoXoXoXoXoXoXoXoXoXoXoXoXoXoXoXoXoXoXoXoXoXoXoXoXoXoXoXoXoXoXoXoXoX",
"oXoXoXoXoXoXoXoXoXoXoXoXoXoXoXoXoXoXoXoXoXoXoXoXoXoXoXoXoXoXoXoXoXoXoXoXoXoXoXoXoXoXoXoXoXoXoXoXoXoXoXoXoXoXoXoXoXoXoXoXoXoXoXoX",
"oXoXoXoXoXoXoXoXoXoXoXoXoXoXoXoXoXoXoXoXoXoXoXoXoXoXoXoXoXoXoXoXoXoXoXoXoXoXoXoXoXoXoXoXoXoXoXoXoXoXoXoXoXoXoXoXoXoXoXoXoXoXoXoX",
"oXoXoXoXoXoXoXoXoXoXoXoXoXoXoXoXoXoXoXoXoXoXoXoXoXoXoXoXoXoXoXoXoXoXoXoXoXoXoXoXoXoXoXoXoXoXoXoXoXoXoXoXoXoXoXoXoXoXoXoXoXoXoXoX",
"oXoXoXoXoXoXoXoXoXoXoXoXoXoXoXoXoXoXoXoXoXoXoXoXoXoXoXoXoXoXoXoXoXoXoXoXoXoXoXoXoXoXoXoXoXoXoXoXoXoXoXoXoXoXoXoXoXoXoXoXoXoXoXoX",
"oXoXoXoXoXoXoXoXoXoXoXoXoXoXoXoXoXoXoXoXoXoXoXoXoXoXoXoXoXoXoXoXoXoXoXoXoXoXoXoXoXoXoXoXoXoXoXoXoXoXoXoXoXoXoXoXoXoXoXoXoXoXoXoX",
"oXoXoXoXoXoXoXoXoXoXoXoXoXoXoXoXoXoXoXoXoXoXoXoXoXoXoXoXoXoXoXoXoXoXoXoXoXoXoXoXoXoXoXoXoXoXoXoXoXoXoXoXoXoXoXoXoXoXoXoXoXoXoXoX",
"oXoXoXoXoXoXoXoXoXoXoXoXoXoXoXoXoXoXoXoXoXoXoXoXoXoXoXoXoXoXoXoXoXoXoXoXoXoXoXoXoXoXoXoXoXoXoXoXoXoXoXoXoXoXoXoXoXoXoXoXoXoXoXoX",
"oXoXoXoXoXoXoXoXoXoXoXoXoXoXoXoXoXoXoXoXoXoXoXoXoXoXoXoXoXoXoXoXoXoXoXoXoXoXoXoXoXoXoXoXoXoXoXoXoXoXoXoXoXoXoXoXoXoXoXoXoXoXoXoX",
"oXoXoXoXoXoXoXoXoXoXoXoXoXoXoXoXoXoXoXoXoXoXoXoXoXoXoXoXoXoXoXoXoXoXoXoXoXoXoXoXoXoXoXoXoXoXoXoXoXoXoXoXoXoXoXoXoXoXoXoXoXoXoXoX"
};
