/* XPM */
static char *_8de1acc00ab451896fde1ce10b16363xNYtPpchmJwIo9H5[] = {
/* columns rows colors chars-per-pixel */
"64 64 180 2 ",
"   c None",
".  c #060506",
"X  c #0C0C0C",
"o  c #060807",
"O  c #110F0E",
"+  c #17130F",
"@  c #130F11",
"#  c #0E1110",
"$  c #141213",
"%  c #191617",
"&  c #1A1917",
"*  c #161718",
"=  c #191618",
"-  c #17191A",
";  c #1C1B1B",
":  c #211E1E",
">  c #291E1B",
",  c #22201F",
"<  c #1F1E20",
"1  c #211F23",
"2  c #1F2020",
"3  c #242323",
"4  c #2C2A2B",
"5  c #24262B",
"6  c #312D2E",
"7  c #372D28",
"8  c #3A312F",
"9  c #32322F",
"0  c #2C2E31",
"q  c #302F31",
"w  c #2F3133",
"e  c #343333",
"r  c #3A3636",
"t  c #3A3936",
"y  c #3B3B3B",
"u  c #383738",
"i  c #423D3D",
"p  c #3E403E",
"a  c #343741",
"s  c #3D3C42",
"d  c #3D3C48",
"f  c #413E42",
"g  c #3E4042",
"h  c #444344",
"j  c #4B4A4C",
"k  c #474548",
"l  c #514B4A",
"z  c #4F514C",
"x  c #53504D",
"c  c #464A55",
"v  c #4E545C",
"b  c #545354",
"n  c #585556",
"m  c #52545B",
"M  c #5C5B5C",
"N  c #5D585A",
"B  c #615E5E",
"V  c #62605F",
"C  c #4D5263",
"Z  c #565763",
"A  c #565965",
"S  c #5C5D63",
"D  c #595B68",
"F  c #625E62",
"G  c #5E6063",
"H  c #646363",
"J  c #6A6767",
"K  c #6C6967",
"L  c #6D6B6B",
"P  c #696569",
"I  c #736C6D",
"U  c #74706E",
"Y  c #6C6E77",
"T  c #6C727D",
"R  c #727273",
"E  c #73767C",
"W  c #7C7C7C",
"Q  c #79787A",
"!  c #867F7A",
"~  c #83817F",
"^  c #506A8C",
"/  c #4E6C92",
"(  c #6E7787",
")  c #747B8B",
"_  c #747987",
"`  c #827F82",
"'  c #7E848E",
"]  c #7B8293",
"[  c #6E87AB",
"{  c #838384",
"}  c #898786",
"|  c #8C8B8D",
" . c #878788",
".. c #848994",
"X. c #848C9B",
"o. c #868892",
"O. c #8A909C",
"+. c #959494",
"@. c #9B9A9D",
"#. c #97989C",
"$. c #8C93AA",
"%. c #969AA6",
"&. c #8594B4",
"*. c #919DBD",
"=. c #959DB5",
"-. c #A4A4A4",
";. c #AAA8A5",
":. c #ADA9A8",
">. c #A8A7A8",
",. c #ABAEB7",
"<. c #BBBBBC",
"1. c #B7B6B7",
"2. c #C2BABA",
"3. c #9FAEC9",
"4. c #A0AEC3",
"5. c #A9B2C7",
"6. c #AEB9CD",
"7. c #A7B4CD",
"8. c #BEBDC3",
"9. c #B2BCCC",
"0. c #ADBAD4",
"q. c #A7B6D1",
"w. c #B0BCD4",
"e. c #B2BFDB",
"r. c #BCC4D6",
"t. c #B3C2DB",
"y. c #BDC5DA",
"u. c #B5C3D7",
"i. c #B4C4E1",
"p. c #BBCAE4",
"a. c #B7C7E6",
"s. c #C3C2C3",
"d. c #C4C6CA",
"f. c #C8C7C9",
"g. c #CCCBCC",
"h. c #D0CFCE",
"j. c #D2D0CF",
"k. c #CCCDD3",
"l. c #C4CCDC",
"z. c #C5CBD6",
"x. c #D2CED1",
"c. c #CCD2D7",
"v. c #D3D2D4",
"b. c #D8D9DA",
"n. c #E0DEDD",
"m. c #C1CEE4",
"M. c #C2CEEB",
"N. c #CAD3E4",
"B. c #CBD4EB",
"V. c #CDD9EA",
"C. c #CFD8E5",
"Z. c #DADCE4",
"A. c #D3DDEE",
"S. c #D4DAE4",
"D. c #C6D4F0",
"F. c #D4DDF1",
"G. c #DDE3EE",
"H. c #D5E0F1",
"J. c #DDE4F1",
"K. c #E5E3E3",
"L. c #E8E9E9",
"P. c #E4E9E8",
"I. c #F1EFEF",
"U. c #E6EAF4",
"Y. c #EBEEF4",
"T. c #EBEFF9",
"R. c #E0E6F1",
"E. c #ECF2FA",
"W. c #F3F3F4",
"Q. c #FBFAF7",
"!. c #F4F6FA",
"~. c #F6F9FD",
"^. c #FBFAFA",
"/. c #FAFAFD",
"(. c #FCFDFF",
"). c white",
"_. c #FFFEFE",
"`. c #FEFDFD",
"'. c #FEFEFD",
"]. c #F8F6F3",
/* pixels */
"                                                                                                                                ",
"                                                                                                                                ",
"                                                                                                                                ",
"                                                                                                                                ",
"                                                                                                                                ",
"                                                                                                                                ",
"                                                                                                                                ",
"                                                                                                                                ",
"                                                                                                                                ",
"                                                                                                                                ",
"                                                                                                                                ",
"                                                                                                                                ",
"                                                      3 $ $ $ $ $ $ $ $ $ $ $ $ @ $                                             ",
"                                                      e 4 e t e t t t t e u y r 9 4                                             ",
"                                                  % =   t./.`.`.`.`.`.`.`.`.`.`.m.a.k +                                         ",
"                                                  % $ 6.q./.`.`.`.`.`.`.`.`.`.`.y.w.h O                                         ",
"                                              3 0   7.~.`.`.`.`.`.`.`.`.`.`.`.`././.m.0.  &                                     ",
"                                              $ 3 a.e.`.`.`.`.`.`.`.`.`.`.`.`.`.`.`.H.i.D X                                     ",
"                                              $ 1 a.e.`.`.`.`.`.`.`.`.`.`.`.`.`.`.`.H.i.A X                                     ",
"                                              $ 3 a.t.`.`.`.`.`.`.`.`.`.`.`.`.`.`.`.F.i.A X                                     ",
"                                              $ 3 a.w.`.`.`.`.`.`.`.`.`.`.`.`.`.`.`.H.i.A X                                     ",
"                                              $ ; M.w.`.`.`.`.`.`.`.`.`.`.`.`.`.`.`.A.e.Z X                                     ",
"                                              $ ; ) _ -.>.-.-.>.>.;.>.>.>.>.>.>.>.-...) s X                                     ",
"                                              $ ; 3 3 ; & ; & $ X X X O O $ & ; ; ; 2 : 3 o                                     ",
"                                              % ; ; ; ; 3 : 3 x H H H K K B 4 3 ; ; ; & 3 o                                     ",
"                                              % ; y x & 3 6 4 s.^.`.`.`.`.W.f n ; ; r x 6 X                                     ",
"                                              $ ; v F ; % N F k.`.^.K.W.`.].H H < % k P 4 X                                     ",
"                                              % 3 0.z.3 ; s.^.`.`.s.; { ^.`.^.Q.y % $.F.C $                                     ",
"                                              % 1 9.r.4 3 f.`.`.^.d.3 { `.`.`.`.t : $.B.v O                                     ",
"                                              O 4 /.`.].].`.`.+.7 t h h 8 l /.`.].W.^.`. ..                                     ",
"                                              $ 4 `.`.`.`.`.`.! > 8 y y > 8 /.`.`.`.`.`.` X                                     ",
"                                          u   h.g.6.q./.`.-.j s.v.n.K.K.b.b.L R W.`.V.&.c.j.  e                                 ",
"                                          $ n `./.&.[ !.`.Q 3 <.`.`.`.`.`.].i w Y.`.t./ G.`.;.O j                               ",
"                                  M M M f $ j J.F.S.U.N.y.d.1.s.<. .L W 1.8.<.f.c.l.C.Z.J.A.X.X b                               ",
"                                j = % % * ; a r.p.^.^.*.^ E.`.f.` q 3 5 W | `.`.*./ E.`.G.N.( X b                               ",
"                                f e 4 e 4 4 4 T T R.J.c.Z.,.+.@.{ k 4 e { { +.| c.S.G.U...' Z N                                 ",
"                & & % & & ; * * k } y y y y e ; 5 D.u./.`.n $ e :.B 4 k | W & : L.`.A.C.C ; L                                   ",
"                & ; 5 3 3 3 5 5 e n y y t y e ; 3 ) ' g.g.n e y ~ Q } W R H 4 4 <.g.%.] a % h                                   ",
"                % 5 M n y i y y y k y t y h f u u & & 4 6 6 y y u +.`.h.i y u y u e < ; ; % % $ h                               ",
"                e y k k e y y y y s s m g h b B N = $ H U L I L H -.!.k.H H H H J I 4 $ 3 4 y i                                 ",
"                    O & V J y y y y ] F.,.j -.].W.= & P.`.`.`.`.`.~.3.A.`.`.`.`.`.`.m $ ( y.U.`.  $ 0                           ",
"                    $ ;   M y y t y _ N.%.b #.`.W.% & L.`.`.`.`.`.~.4.J.`.`.`.`.`.`.n % T 5.W.`.g.$ q                           ",
"                        % & ; ; ; & ; * R ^.`.`.W.$ & L.`.B.p.] H H M S H Y M.e.^.`.b $ M ; v.`.g.$ e                           ",
"                        $ & & & & ; % $ W `.`.`.I.$ ; L.`.N.m.' G S K B M H a.0.^.`.b $ x i d.`.g.@ e                           ",
"                                      O i  .W G M * ; Q | W o.O.r.l.P.Z.7.5.E E  .| q % , ; u j M                               ",
"                                      $ 6 V b e y = & k l l b X.0.E.^.~.u.y.N N z b 3 = $ % $ # y                               ",
"                                          4 4 ; : ; & =.5.v.b.d._ #.-.#.' o.v.v.6.r.s X                                         ",
"                                          % * - & % ; t.M.!.`.:.i B L n k F /.`.m.V.d #                                         ",
"                                                      A m b.`.P.2.| , n s.x.`.`.Y D                                             ",
"                                                      e & f.`.Q.Q.;.@ N Q.`.`.`.t &                                             ",
"                                                      0 ; 8.E.E.T.%.$ N U.T.E.U.e =                                             ",
"                                                      3 -           $ c         5 *                                             ",
"                                                      j h           y           b p                                             ",
"                                                                                                                                ",
"                                                                                                                                ",
"                                                                                                                                ",
"                                                                                                                                ",
"                                                                                                                                ",
"                                                                                                                                ",
"                                                                                                                                ",
"                                                                                                                                ",
"                                                                                                                                ",
"                                                                                                                                ",
"                                                                                                                                "
};
