/* XPM */
static char *_bd96ddf1575454bb53993670016ea95N96citBNWxGpg6KR[] = {
/* columns rows colors chars-per-pixel */
"64 64 206 2 ",
"   c None",
".  c #010C0D",
"X  c #070B0B",
"o  c #100F0E",
"O  c #0A0E10",
"+  c #010E10",
"@  c #061214",
"#  c #0C1313",
"$  c #0C1719",
"%  c #141515",
"&  c #181616",
"*  c #151917",
"=  c #191817",
"-  c #15161A",
";  c #191719",
":  c #151A1B",
">  c #1A1A1A",
",  c #221E1B",
"<  c #1D201E",
"1  c #22221D",
"2  c #2D2A1D",
"3  c #30291B",
"4  c #372B19",
"5  c #31301C",
"6  c #151C20",
"7  c #1E1D23",
"8  c #221922",
"9  c #1D2329",
"0  c #252324",
"q  c #242B23",
"w  c #2C2E22",
"e  c #2B2B2C",
"r  c #292829",
"t  c #3A2A26",
"y  c #342E2A",
"u  c #372E28",
"i  c #2D3124",
"p  c #2C342A",
"a  c #313121",
"s  c #34342D",
"d  c #393329",
"f  c #262C33",
"g  c #2A2E31",
"h  c #2D3434",
"j  c #2A343C",
"k  c #2A383E",
"l  c #353A3A",
"z  c #3C3C3E",
"x  c #383534",
"c  c #4B3618",
"v  c #422F22",
"b  c #402D28",
"n  c #48342A",
"m  c #573A2D",
"M  c #583D30",
"N  c #4C3B31",
"B  c #633D2E",
"V  c #47413B",
"C  c #5E4239",
"Z  c #65422E",
"A  c #6B4534",
"S  c #64443A",
"D  c #6C4E3A",
"F  c #6B4633",
"G  c #754933",
"H  c #7B4C35",
"J  c #774936",
"K  c #6C5239",
"L  c #7E5135",
"P  c #7E5539",
"I  c #745137",
"U  c #2E3740",
"Y  c #2E3E4C",
"T  c #2E3E47",
"R  c #323A44",
"E  c #313D4C",
"W  c #3B3D43",
"Q  c #2F424D",
"!  c #31414D",
"~  c #384041",
"^  c #2F4551",
"/  c #334351",
"(  c #494544",
")  c #424549",
"_  c #4C4D4E",
"`  c #474646",
"'  c #504F4E",
"]  c #554D45",
"[  c #44504D",
"{  c #4D4D50",
"}  c #514E51",
"|  c #4F5052",
" . c #48525B",
".. c #555454",
"X. c #57575A",
"o. c #664E41",
"O. c #6A5342",
"+. c #665348",
"@. c #785946",
"#. c #665957",
"$. c #62615F",
"%. c #766353",
"&. c #435462",
"*. c #565A62",
"=. c #666668",
"-. c #7A7370",
";. c #865336",
":. c #8A5436",
">. c #87543A",
",. c #8A5539",
"<. c #8D593C",
"1. c #855A3B",
"2. c #91563A",
"3. c #925A3D",
"4. c #955939",
"5. c #9A653C",
"6. c #A4613E",
"7. c #895D45",
"8. c #965D42",
"9. c #9C5E43",
"0. c #8E604A",
"q. c #9F6145",
"w. c #976646",
"e. c #816A59",
"r. c #8A735C",
"t. c #9B7258",
"y. c #AC694E",
"u. c #A76849",
"i. c #B36A4A",
"p. c #AB704C",
"a. c #B6794D",
"s. c #BA7A54",
"d. c #B27C5C",
"f. c #937C66",
"g. c #8B7B71",
"h. c #BD835C",
"j. c #BF8557",
"k. c #938261",
"l. c #9A8B77",
"z. c #AB8468",
"x. c #A18171",
"c. c #AD8B6E",
"v. c #CB8349",
"b. c #CA8B55",
"n. c #C88756",
"m. c #D28C53",
"M. c #D29358",
"N. c #D89356",
"B. c #E2985A",
"V. c #C28C69",
"C. c #C88A64",
"Z. c #CC9166",
"A. c #D4976C",
"S. c #C19273",
"D. c #E59D63",
"F. c #E49D71",
"G. c #D7A477",
"H. c #E4A06C",
"J. c #E8A06C",
"K. c #FEAF6E",
"L. c #E6A273",
"P. c #E9A374",
"I. c #EDA67B",
"U. c #E9A87A",
"Y. c #FCAC73",
"T. c #F5AE7D",
"R. c #F9AF7E",
"E. c #F9AE7E",
"W. c #F0A978",
"Q. c #F7B17E",
"!. c #FAB07E",
"~. c #FAB173",
"^. c #737B80",
"/. c #8F908F",
"(. c #919292",
"). c #B19889",
"_. c #B4A692",
"`. c #B2AEAF",
"'. c #B0AEB0",
"]. c #C19E8D",
"[. c #DFAF97",
"{. c #D6B998",
"}. c #F6AE80",
"|. c #F9AF80",
" X c #F7B180",
".X c #F9B181",
"XX c #F4B38B",
"oX c #F2B796",
"OX c #DBBFA6",
"+X c #D2CFB5",
"@X c #DBD7BC",
"#X c #CCC3BA",
"$X c #E6C5A8",
"%X c #F9D2B7",
"&X c #EDCDAD",
"*X c #CAC8C8",
"=X c #E3DFC0",
"-X c #F6DFCF",
";X c #EBE5C8",
":X c #F3EBCA",
">X c #F2E8C6",
",X c #F6F4D4",
"<X c #F9EDD5",
"1X c #FEFDFE",
"2X c #F7F5F2",
"3X c #F3ECE9",
/* pixels */
"                                                                                                                                ",
"                                                                                                                                ",
"                                                                                                                                ",
"                                                                                                                                ",
"                                                                                                                                ",
"                                                                                                                                ",
"                                                                                                                                ",
"                                                                                                                                ",
"                                                                                                                                ",
"                                                                                                                                ",
"                                                          { > 7 7 7 7 )     > 7 7 7 7 7                                         ",
"                                                          ( = - - & * z     & ; ; > & *                                         ",
"                                                  z z W W S H L L H H A l l H H L L H J C q                                     ",
"                                                  % % # $ F :.,.,.:.:.G % > ,.:.:.,.,.2.M .                                     ",
"                                              ..X.A G G F L :.,.,.,.,.;.Z F >.,.,.,.3.9.B .                                     ",
"                                              % > ,.2.:.,.,.,.,.,.,.,.,.>.>.,.,.,.<.q.i.S .                                     ",
"                                            #.M m 3.4.:.,.,.,.,.,.,.,.,.>.,.,.,.<.4.3.8.J n +.                                  ",
"                                          # t ,.2.u.i.<.,.,.,.,.,.,.,.,.>.,.:.,.u.i.3.<.,.:.Z @ |                               ",
"                                          # t :.,.8.8.<.<.<.<.,.,.,.,.3.s.p.:.:.4.8.<.,.,.>.F O }                               ",
"                                          # b :.,.,.,.y.y.y.y.9.,.:.L u.!.}.H 1.,.,.,.,.,.,.A @ |                               ",
"                                          O b :.,.,.,.9.q.q.q.3.;.3.w.h.R.I.u.w.<.,.,.,.,.,.J , ]                               ",
"                                          O u :.,.,.,.<.>.,.,.>.L d.!.|. XQ.!.!.3.>.:.,.,.,.,.:.J # g                           ",
"                                          % v ,.:.:.,.2.3.3.<.3.7.n.|.E.E.E.E.T.6.4.2.2.,.,.,.,.G % e                           ",
"                                      # n 2.:.:.:.:.,.I..X.X.XE.E.}.}.E.E.!.Q.R.R.|.E.E.s.,.,.,.G & g                           ",
"                                      @ n :.:.:.:.<.,.I.T.!.!.E.R. XR.E.!.!.Q.R.R.I.T.}.s.,.,.,.H - g                           ",
"                                      @ m :.:.:.7.3X3XV r Z.!.E. XQ.R.E.Q.!.Q.R.N f #X2X).,.:.:.H - g                           ",
"                                      O m :.:.;.0.1X1Xx - V.!.!.!.E.E.E.!. X XT.u : *X1X].3.,.:.H & g                           ",
"                                      X m :.:.s.h.1X1Xx - C.!.R.Q.R.R.R..X XQ.R.u - *X1X{.a.5.:.J % g                           ",
"                                      X m :.4.m.A.1X1Xl $ V.E.R.R.R.R.E.E. X!.R.u - *X1XOXM.a.:.G o g                           ",
"                                          v F v.b.%X%Xz.t.L.R.R.R.Q.H.W.E.R.E.E.d.t.$X%XG.b.w.v +.                              ",
"                                          @ d N.N.~.!.T.T.R.R.Q.E.P.5.Z.E.E.E.E.W.E.Q.!.H.M.P @ !                               ",
"                                          X.  D 0.Y.Y.E.E.!.!.R.E.T.J.W.!.E.R.E.E.E.T.E.h.I e.X.                                ",
"                                              % 0 Y.!.!.E.E.E.E.E.T.!..XE.E.E.E.E.E.R.R.7.+                                     ",
"                                              % 0 C.C.W.E.E.E.E.E.XX$XoX!.E.E.E.!..XA.V.e.~                                     ",
"                        > > > ; = = & & - & > - > 6 8 P.E.E.E.E.!.%X1X<XQ.R.E.E.!.E.S @                                         ",
"                        > > > = > > = > > > > > > & , A.F.P.P.W.Y.&X2X-XT.W.L.L.L.F.M @                                         ",
"                        > = z ( =./.} ..} ..{ -.=.% > i p i p 1.N.b.M.b.m.j.a p s d 1 #                                         ",
"                        ; > e e ` -.` ( ( ` ` %.#.% > q w w w K M.n.b.n.m.a.w q w w 1 #                                         ",
"                        ; = /.'.-. .f.Z.c.=.g. XU.- : w w w i l.>X{.v.G.;X+X2 w w w 1 & r >                                     ",
"                        = & (.`./...S.B.h.[ r.Y.P.- : w w w i l.,X{.v.G.:X@X3 w w w 1 > & #                                     ",
"                            z x r 0 t y @.G.U.!.L.- : w w w i l.>X&X$X&X>X@X3 w w w 1 : Z j.@.l                                 ",
"                            0 & o % & $ @.K.~.Y.P.- : w i w i l.,X>X,X:X:X=X3 w i w 1 : L B.1.@ {                               ",
"                                    ..# #.[.].x.f.- > w i i w K f.l.;X_.k.r.2 w i w 1 : L D.@.@ '                               ",
"                                      % ) `.^.W ..; > w i a 5 4 c e.2X).c c 2 w i a 1 : P D.1.# _                               ",
"                                          $.X.r 0 - > h h h j h s ` (.=.x h h h h p < * n w.@.                                  ",
"                                          % % % > & : E / / / ! Q ^ ^ ^ / Q Y ! / / 9 > * $ *.                                  ",
"                                          ......' ' ` R k U k j k Y / / / / U k j f ` { _ _                                     ",
"                                                      e > > > > > j &.&.&.&.; > & :                                             ",
"                                                      V s y s , > j &.&.&. .> & y e                                             ",
"                                                                & f Y Y ! E > %                                                 ",
"                                                                % f R E Y R : >                                                 ",
"                                                              | % x O.O.O.o.: >                                                 ",
"                                                              _ # n D D D D & *                                                 ",
"                                                                                                                                ",
"                                                                                                                                ",
"                                                                                                                                ",
"                                                                                                                                ",
"                                                                                                                                ",
"                                                                                                                                ",
"                                                                                                                                ",
"                                                                                                                                ",
"                                                                                                                                ",
"                                                                                                                                ",
"                                                                                                                                "
};
