/* XPM */
static char *_5c723c1e7884363c97b4cfed52a5e38hKHUDhK6VPOxxiVH[] = {
/* columns rows colors chars-per-pixel */
"64 64 213 2 ",
"   c None",
".  c #010C0D",
"X  c #0B0D0E",
"o  c #010706",
"O  c #110E0D",
"+  c #0D100F",
"@  c #12100F",
"#  c #0A0E10",
"$  c #070C11",
"%  c #140F11",
"&  c #0D1213",
"*  c #0C1817",
"=  c #091616",
"-  c #131515",
";  c #181515",
":  c #161917",
">  c #14161A",
",  c #191719",
"<  c #141A1A",
"1  c #1A1B1B",
"2  c #191817",
"3  c #231F17",
"4  c #1D211C",
"5  c #24241D",
"6  c #2D2B1D",
"7  c #2B271E",
"8  c #312F1E",
"9  c #3B2D12",
"0  c #33301D",
"q  c #1D1E23",
"w  c #121820",
"e  c #211922",
"r  c #1A2121",
"t  c #1D2328",
"y  c #232424",
"u  c #2C2524",
"i  c #242923",
"p  c #2C2E22",
"a  c #262A2E",
"s  c #2B2D2C",
"d  c #252628",
"f  c #342E2A",
"g  c #3C2D29",
"h  c #392C27",
"j  c #2E3223",
"k  c #2E332A",
"l  c #31302F",
"z  c #383227",
"x  c #2A2E31",
"c  c #2C3334",
"v  c #2B353C",
"b  c #253036",
"n  c #353533",
"m  c #33393B",
"M  c #3C3B3C",
"N  c #383736",
"B  c #4D3618",
"V  c #533A1B",
"C  c #432E23",
"Z  c #473429",
"A  c #53362E",
"S  c #5D3C2C",
"D  c #513A2D",
"F  c #4C3D34",
"G  c #523E32",
"H  c #633D2E",
"J  c #49433B",
"K  c #5B433A",
"L  c #5D4636",
"P  c #6B4534",
"I  c #6E4D3C",
"U  c #684435",
"Y  c #754933",
"T  c #7A4C35",
"R  c #774936",
"E  c #6B513B",
"W  c #635338",
"Q  c #7E5136",
"!  c #7C5339",
"~  c #715739",
"^  c #69442E",
"/  c #2F3E4D",
"(  c #2E3843",
")  c #323E4B",
"_  c #3A3C42",
"`  c #423F40",
"'  c #2F414E",
"]  c #32414D",
"[  c #2F4452",
"{  c #314351",
"}  c #384954",
"|  c #4C4B4C",
" . c #474647",
".. c #594D44",
"X. c #4B4C51",
"o. c #514E50",
"O. c #4E5051",
"+. c #42535F",
"@. c #585758",
"#. c #6C5546",
"$. c #675C58",
"%. c #5F605F",
"&. c #445562",
"*. c #465966",
"=. c #5A5B60",
"-. c #5F6168",
";. c #6A6767",
":. c #736B67",
">. c #855336",
",. c #8A5436",
"<. c #87543A",
"1. c #8A5539",
"2. c #8E593C",
"3. c #885B3B",
"4. c #91563A",
"5. c #935A3C",
"6. c #985C3C",
"7. c #925637",
"8. c #99653B",
"9. c #A4613E",
"0. c #8D5E44",
"q. c #965D42",
"w. c #9C5E43",
"e. c #8D6149",
"r. c #9F6145",
"t. c #996949",
"y. c #9B7257",
"u. c #866F5B",
"i. c #AC694E",
"p. c #A76948",
"a. c #B36A4A",
"s. c #AA7148",
"d. c #B7784B",
"f. c #AA7B5D",
"g. c #BB7B54",
"h. c #B27B5C",
"j. c #B07E51",
"k. c #C77C44",
"l. c #93805F",
"z. c #BE825B",
"x. c #87827E",
"c. c #9A8977",
"v. c #9C9177",
"b. c #978367",
"n. c #AB8263",
"m. c #BF8B64",
"M. c #CA844B",
"N. c #CC8B54",
"B. c #C68859",
"V. c #D48D53",
"C. c #D38F58",
"Z. c #CF9255",
"A. c #DB9458",
"S. c #D18449",
"D. c #C48E6A",
"F. c #C88A65",
"G. c #CC936C",
"H. c #D49568",
"J. c #D79A73",
"K. c #E19E72",
"L. c #E59E67",
"P. c #D7A576",
"I. c #E5A16E",
"U. c #E6A173",
"Y. c #EDA67B",
"T. c #EBA777",
"R. c #F4AA77",
"E. c #FAAC75",
"W. c #F6AE7D",
"Q. c #F9AF7E",
"!. c #F9AE7E",
"~. c #F1A677",
"^. c #F9B274",
"/. c #F6B17E",
"(. c #FAB17E",
"). c #F2B171",
"_. c #939597",
"`. c #BD9884",
"'. c #A99C90",
"]. c #BAA694",
"[. c #B7B6B8",
"{. c #AAA9AA",
"}. c #C29F8E",
"|. c #D6B897",
" X c #E1AE82",
".X c #F6AE80",
"XX c #F9AF80",
"oX c #F7B080",
"OX c #FBB181",
"+X c #F3B48B",
"@X c #F2B796",
"#X c #DBBFA6",
"$X c #E4BFA3",
"%X c #DAD4BB",
"&X c #CFC8B7",
"*X c #E8C8AA",
"=X c #F0C1A7",
"-X c #E3D2AC",
";X c #E3DDBE",
":X c #F9D3B7",
">X c #F7CDB1",
",X c #CAC8C8",
"<X c #E9DFC0",
"1X c #F6DFCF",
"2X c #ECE5CB",
"3X c #EDE8C7",
"4X c #F5ECCA",
"5X c #F0E5C2",
"6X c #F6F4D3",
"7X c #FAEDD5",
"8X c #FEFDFE",
"9X c #F8F6F2",
"0X c #F3ECE9",
/* pixels */
"                                                                                                                                ",
"                                                                                                                                ",
"                                                                                                                                ",
"                                                                                                                                ",
"                                                                                                                                ",
"                                                                                                                                ",
"                                                                                                                                ",
"                                                                                                                                ",
"                                                                                                                                ",
"                                                                                                                                ",
"                                                                                                                                ",
"                                                    X.1 q q q q  .    1 q q q q q                                               ",
"                                                     .2 > > : : M     ; 1 , 1 : :                                               ",
"                                            M M _ _ U T Q Q T T U m m Q Q Q Q T T K i                                           ",
"                                            - ; & * P ,.1.1.,.,.Y - 1 1.,.,.1.1.7.S .                                           ",
"                                        @.@.U Y Y Y Q >.1.<.1.1.>.^ P <.1.1.1.4.w.H .                                           ",
"                                        - 1 1.7.,.1.1.1.1.1.1.1.1.<.>.1.1.1.2.r.a.U .                                           ",
"                                      $.S S 6.7.>.<.1.1.1.1.1.1.1.<.1.1.1.2.5.4.q.T Z #.                                        ",
"                                    & h 1.7.p.a.2.<.1.1.1.1.1.1.1.>.1.,.1.p.a.4.2.1.,.^ = O.                                    ",
"                                    & h ,.1.q.q.2.2.2.4.1.1.1.1.4.g.s.,.,.5.q.2.1.1.<.P # o.                                    ",
"                                    & g ,.1.1.1.i.i.i.i.w.1.,.Q p.(.Q.T <.1.1.1.1.1.1.U & O.                                    ",
"                                    & g ,.1.1.1.w.r.r.r.4.>.6.t.z.!.Y.p.t.2.1.1.1.1.1.R 3 ..                                    ",
"                                    # g ,.1.1.1.2.<.1.1.>.>.h.OXXXoX/.(.(.q.<.1.1.1.1.1.,.T - a                                 ",
"                                    - C 1.,.,.1.7.5.2.2.2.0.B.XX!.!.!.!.W.9.6.7.7.1.1.1.1.Y - s                                 ",
"                                & Z 7.,.,.,.,.1.Y.oXOXOX!.!..X.X!.!.(.(.Q.Q..XQ.!.g.1.1.1.Y : x                                 ",
"                                & Z ,.,.,.,.2.1.Y.W.(.(.!.!.oXQ.!.(.(./.Q.W.Y./.Q.g.1.1.1.T > x                                 ",
"                                & A ,.,.,.0.0X0XJ u G.(.!.oX(.!.!.(.(./.Q.F a &X9X`.2.,.,.T > x                                 ",
"                                # A ,.,.>.e.8X8XN > D.(.(.(.!.!.!.(.oXoXW.f w ,X8X}.5.,.,.T : x                                 ",
"                                . A ,.,.d.z.8X8XN > D.(.Q./.Q.Q.Q.oXoX/.Q.f > ,X8X|.d.8.,.T - x                                 ",
"                                o D ,.6.V.H.8X8Xm * D.!.Q.Q.Q.Q.!.Q.oXoXQ.g > ,X8X#XC.s.,.Y X x                                 ",
"                                    C P M.N.:X:Xn.y.U.Q.Q.Q./.I.R.!.Q.!.!.h.y.$X:XP.N.2.Z ..                                    ",
"                                    & z A.A.^.^.!.W.Q.Q./.!.U.8.F.!.!.!.!.R.!./.^.L.C.! * ]                                     ",
"                                    @.  I e.E.E.!.!.(.(.Q.!.W.I.R.(.!.!.!.!.!.W.W.z.! #.                                        ",
"                                        - y E.(.OX!.!.(.(.(.!.(.(.!.!.!.XX!.!.W.R.e..                                           ",
"                                        - u F.F.R.!.!.!.!.!.+X=X@X(.!.!.(.(.!.J.D.I .                                           ",
"                          | ; 1 1 1 1 1 > 1 q e U.(.oX!.!.(.>X8X7X/.Q.!.oX/.Q.K > > $                                           ",
"                          | : 1 : 1 1 1 , , 1 y G.K.U.U.~.E.=X9X1XW.~.U.U.K.J.^ f f i                                           ",
"                          | : n M | x.@.| | | | y r p k 3.V.N.Z.N.V.g.j k y q F.(.(.(.f.= X.                                    ",
"                          | - c s N :.@.| | J ` 1 > 5 p ~ Z.B.N.N.N.j.p i 1 < B.E.W.!.h.X X.                                    ",
"                          | - %.[.x.@.:.m.n.;.;.1 1 5 j v.3X|.M.P.<X&X7 p 1 r s.k.R.!.f.X O.                                    ",
"                          | @ ;.[._.@.c.A.H.$.;.1 1 5 j v.6X|.S.P.3X%X7 p 4 4 s.k.W.OXf.X O.                                    ",
"                                M s y f g n P. Xy 1 7 p v.4X-X-X-X5X%X7 p 7 7 z Z G G                                           ",
"                                : + & - > y ^.).u 1 7 p v.6X4X6X4X4X;X6 p p p 4 < & = =.                                        ",
"                                        > t `.].p 5 6 8 W b.c.2X].l.u.p p p p 5 - @.                                            ",
"                                        % 1 {.[.j 6 8 0 9 V u.9X'.B B 7 p j 0 5 :                                               ",
"                                              ;.c c c v c n  ._.-.c c c c c c r -                                               ",
"                                            O > { { { ] ] { [ [ ] / ' ] ' { { a -                                               ",
"                                            | | m v v v ) { { ] / ( v v v v b  . .                                              ",
"                                                u , 1 , ) *.&.&.} , 1 1 , ; <                                                   ",
"                                                M f 5 1 ) &.+.&.} > : l l s s                                                   ",
"                                                     .- v / / ) ( > d                                                           ",
"                                                    | - v ( / ) ( > s                                                           ",
"                                                    M - F #.E #.K > y                                                           ",
"                                                    N & F E E I L - y                                                           ",
"                                                                                                                                ",
"                                                                                                                                ",
"                                                                                                                                ",
"                                                                                                                                ",
"                                                                                                                                ",
"                                                                                                                                ",
"                                                                                                                                ",
"                                                                                                                                ",
"                                                                                                                                ",
"                                                                                                                                "
};
