/* XPM */
static char *_84b95853ac7469be4decad776993172ngs2XD1xgCHryGs8[] = {
/* columns rows colors chars-per-pixel */
"64 64 215 2 ",
"   c None",
".  c #020D0D",
"X  c #090C0B",
"o  c #13110F",
"O  c #0A0F11",
"+  c #070F13",
"@  c #051614",
"#  c #0C1213",
"$  c #0A1718",
"%  c #131415",
"&  c #191616",
"*  c #141619",
"=  c #191719",
"-  c #141A1B",
";  c #1A1A1A",
":  c #161917",
">  c #1F221C",
",  c #22231B",
"<  c #29251C",
"1  c #2D2B1E",
"2  c #342A1A",
"3  c #32311B",
"4  c #131B21",
"5  c #181F20",
"6  c #231722",
"7  c #1D2125",
"8  c #1F262D",
"9  c #242223",
"0  c #2C2E22",
"q  c #24272A",
"w  c #28272B",
"e  c #252A2C",
"r  c #2D2D2E",
"t  c #2A2A24",
"y  c #332D2B",
"u  c #3E2D29",
"i  c #372A25",
"p  c #2D3123",
"a  c #2B322D",
"s  c #34332E",
"d  c #3B3429",
"f  c #39392A",
"g  c #2A2E31",
"h  c #312F33",
"j  c #2D3232",
"k  c #2A343C",
"l  c #333231",
"z  c #3C3C32",
"x  c #3B3B3C",
"c  c #363838",
"v  c #4A3619",
"b  c #503A1C",
"n  c #463627",
"m  c #553A2B",
"M  c #5B3C2C",
"N  c #52362E",
"B  c #4C3B34",
"V  c #453E3C",
"C  c #443E33",
"Z  c #543F30",
"A  c #633E2E",
"S  c #414130",
"D  c #5A4133",
"F  c #63412F",
"G  c #6B4532",
"H  c #6F4833",
"J  c #63423B",
"K  c #664838",
"L  c #744932",
"P  c #794C35",
"I  c #724636",
"U  c #765437",
"Y  c #2D3945",
"T  c #2E3E4C",
"R  c #2F3741",
"E  c #3D3C41",
"W  c #313E4C",
"Q  c #373B41",
"!  c #2C3F50",
"~  c #2F404E",
"^  c #31404D",
"/  c #3D4447",
"(  c #334351",
")  c #3B4A58",
"_  c #464345",
"`  c #4C4B4C",
"'  c #494749",
"]  c #524F4F",
"[  c #5A524E",
"{  c #4E4F53",
"}  c #534F50",
"|  c #4D5252",
" . c #535453",
".. c #58575A",
"X. c #5B5A5D",
"o. c #595758",
"O. c #664E42",
"+. c #695242",
"@. c #795B47",
"#. c #685D58",
"$. c #78665A",
"%. c #6B6251",
"&. c #595A60",
"*. c #6B6664",
"=. c #69686A",
"-. c #636162",
";. c #706460",
":. c #757275",
">. c #814E35",
",. c #855336",
"<. c #8A5436",
"1. c #865439",
"2. c #8A5539",
"3. c #855C3C",
"4. c #8D583B",
"5. c #90553A",
"6. c #935A3C",
"7. c #9B5B3D",
"8. c #965A37",
"9. c #C17034",
"0. c #895B43",
"q. c #9B5E43",
"w. c #945D42",
"e. c #8B6246",
"r. c #9D6244",
"t. c #966648",
"y. c #936C55",
"u. c #997154",
"i. c #8A6E58",
"p. c #A3644A",
"a. c #A86848",
"s. c #B16949",
"d. c #AE7447",
"f. c #B27349",
"g. c #A77553",
"h. c #B77955",
"j. c #867F7C",
"k. c #A37D64",
"l. c #D07D4B",
"z. c #AD815D",
"x. c #8F816C",
"c. c #9E8B6F",
"v. c #81807A",
"b. c #978E76",
"n. c #9A9079",
"m. c #AE9F7D",
"M. c #BA947D",
"N. c #CA8951",
"B. c #C98956",
"V. c #D48C51",
"C. c #D78F59",
"Z. c #CE945F",
"A. c #D69257",
"S. c #CD834A",
"D. c #E39859",
"F. c #C78C64",
"G. c #C68D68",
"H. c #CC946A",
"J. c #CD946B",
"K. c #D39C6B",
"L. c #D59466",
"P. c #DB9B72",
"I. c #C69C75",
"U. c #E79D74",
"Y. c #E39F67",
"T. c #DAA277",
"R. c #EAA475",
"E. c #ECA57B",
"W. c #E3AB7F",
"Q. c #FCAD75",
"!. c #F0A578",
"~. c #F5AD7D",
"^. c #F9AF7E",
"/. c #F9AE7E",
"(. c #F4A974",
"). c #F7B17E",
"_. c #FAB17E",
"`. c #F9B274",
"'. c #989799",
"]. c #828383",
"[. c #A39C97",
"{. c #AF9787",
"}. c #B2A383",
"|. c #AFB3B3",
" X c #BAB6B5",
".X c #C79A83",
"XX c #C2A08F",
"oX c #D9AB89",
"OX c #DAB88D",
"+X c #CCB397",
"@X c #E0AB82",
"#X c #F7AE80",
"$X c #F9AF80",
"%X c #F6B181",
"&X c #FAB180",
"*X c #F2B189",
"=X c #F0B693",
"-X c #D0BDAD",
";X c #DFC79F",
":X c #DDC3A8",
">X c #DAD7BC",
",X c #CEC4A8",
"<X c #EAD9B6",
"1X c #F5CBB2",
"2X c #C9C8C8",
"3X c #DECFC7",
"4X c #E3DBC7",
"5X c #FADECB",
"6X c #EFE7C5",
"7X c #F6EDCB",
"8X c #F8E6DB",
"9X c #F7F5D5",
"0X c #FAF3CE",
"qX c #FEFDFE",
"wX c #F2F5F1",
/* pixels */
"                                                                                                                                ",
"                                                                                                                                ",
"                                                                                                                                ",
"                                                                                                                                ",
"                                                                                                                                ",
"                                                                                                                                ",
"                                                                                                                                ",
"                                                                                                                                ",
"                                                                                                                                ",
"                                                                                                                                ",
"                                                                                                                                ",
"                                                                                                                                ",
"                                                      x E E x E X.    x x E E x E                                               ",
"                                                    ' % % % # % c     % % % % # %                                               ",
"                                            ..X.X...J H H L G G J  . .G H L L G G O./                                           ",
"                                            % % + $ G <.2.2.<.5.L $ : 5.<.<.<.4.5.M .                                           ",
"                                            M F F A P ,.2.1.2.2.>.M F 1.<.<.2.4.7.A .                                           ",
"                                        % ; 2.<.<.2.2.2.2.2.2.2.2.1.1.2.4.4.2.r.s.A .                                           ",
"                                        n n 6.8.1.2.2.2.2.2.2.2.2.1.2.2.4.4.6.6.q.I 2 #.                                        ",
"                                    # i 5.5.a.s.2.1.2.2.2.2.2.2.2.1.2.<.2.a.s.6.2.2.<.G @ {                                     ",
"                                    # u <.2.r.r.4.2.4.4.2.2.2.2.4.a.r.<.<.7.q.4.2.2.1.G O }                                     ",
"                                    # u <.2.2.1.p.a.a.a.q.2.<.,.a._.~.,.1.4.2.4.2.2.2.H # |                                     ",
"                                    # u <.2.2.2.p.p.p.p.6.2.5.3.f.^.E.4.3.2.2.2.2.2.2.I # `                                     ",
"                                    O u <.2.2.2.2.2.2.2.2.,.h.&X$X%X)._._.w.1.<.2.2.2.2.<.P % e                                 ",
"                                    O u 2.<.<.1.<.<.2.1.1.U h.^.^.^.^.^.^.7.5.<.4.2.2.2.2.L % r                                 ",
"                                w B >.>.<.<.<.2.P.E.!.!.!.!.~.#X^.^._._.^.R.R.R.R.h.4.2.2.L % g                                 ",
"                                # n <.<.<.<.<.4.#X#X&X_.^.^.$X#X^._._._.^.%X^._.^.h.4.2.2.P * g                                 ",
"                                # N <.<.<.0.3X4X+.B L._.^.%X_.^.^._._.).^.K V -X8XM.4.<.<.P * g                                 ",
"                                O N <.<.,.t.qXqXc - G._._.%X_.^.^.^.%X%X~.y 4 2XqXXX6.2.<.P % g                                 ",
"                                . N <.<.d.h.qXqXz * G._.^.%X^.^.^.%X%X).~.y * 2XqX+Xd.8.<.P % g                                 ",
"                                . N <.8.A.K.qXqXc $ G.^.^.).).^.^.^.%X%X^.y * 2XqX:XC.f.<.L o g                                 ",
"                                ..#.m P S.B.5X5Xi.@.P.^.^.^.).R.~.^.^._.^.y.@.:X5XoXN.r.m +.X.                                  ",
"                                    # d V.A.`._././.^.^.).^.R.a.L.^.^.^.^.(.~.)._.Y.A.3.$ /                                     ",
"                                    x [ e.g.Q.Q./.^._._.^.^.(.L.R._.^.^.^.^.^.~./.F.t.@.x                                       ",
"                                        % 9 Q._._.^.^.^.^.^./._._.^.^.^.^.^.^.^.^.e..                                           ",
"                                        % t R.U./.^.^.^.^.^.%X=X*X_.^.^.^._._.E.E.@.-                                           ",
"                      h ; ; ; ; & * % = % ; - 6 U._.$X^.^._.1XqX8X).^.^.^._.$XK +                                               ",
"                      r ; ; % = % % % % = : : 5 T.(.~.^.^./.1XqX8X#X~.~./.!.!.D O                                               ",
"                      r % l x _ v.` ` ` ` ' o.-.C z n z e.A.B.K.Z.C.B.n z S C 9 * 9 w q w {                                     ",
"                      r % l l _ j.} ` ' ' ` *.;.0 t 0 p U A.N.N.N.V.d.p 0 0 0 > * & % % % x                                     ",
"                      r % =.'.*.&.$.z.k.=.*.@XW.t ; < p x.<XOXN.K.<X,X1 0 0 0 > - 0.H.J.J.  x |                                 ",
"                      r % ]. X[.' M.D.F.| #.Q.(.t - < p b.9XOXS.T.6X>X2 0 0 0 > - g.`.`.Q.J.% g                                 ",
"                          o.] x r B D +.I.P._.~.i : 1 p b.7X:XOX;X6X>X2 0 p p > 4 t.l.R./.G.% g                                 ",
"                          V % . O % $ B Q.Q.Q._.t : 1 0 n.0X7X9X7X7X4X1 0 0 p , - t.9.(._.H.% g                                 ",
"                                   .% V oX.Xu.y.< , 0 1 %.}.{.4X+Xm.c.1 0 p 0 , - Z 3.t.u.y.#.                                  ",
"                                    % j  X'.- 5 0 1 1 3 2 b $.wX[.v v 1 0 p p , ; % @ @ @ Q                                     ",
"                                    _  .j.=.; : e a j j s d [ |.:.d s a j a a 7 % x o. . .                                      ",
"                                        o * * : W W W ~ T ~ ! ~ W W ~ ^ W T ) 7 %                                               ",
"                                        y l s r R Y W T T W Y Y Y W ~ ^ ^ Y k j e                                               ",
"                                                y % Y W ^ ^ k & e T ^ ^ ^ 7 %                                                   ",
"                                                r % Y W ^ ^ k & e ~ ^ ^ W 7 %                                                   ",
"                                                q % Y W ^ W k % q ^ W ^ ^ 7 &                                                   ",
"                                                9 * W ( ^ ^ k % 8 ( ~ ~ ( 7 %                                                   ",
"                                                                                                                                ",
"                                                                                                                                ",
"                                                                                                                                ",
"                                                                                                                                ",
"                                                                                                                                ",
"                                                                                                                                ",
"                                                                                                                                ",
"                                                                                                                                ",
"                                                                                                                                ",
"                                                                                                                                ",
"                                                                                                                                "
};
